<svg width="17" height="20" viewBox="0 0 17 20" fill="none" xmlns="http://www.w3.org/2000/svg">
<path d="M15.4533 8.7625L2.40614 0.788851C2.18642 0.654484 1.93479 0.581113 1.67727 0.576183C1.41966 0.57135 1.16552 0.635149 0.940769 0.761106C0.716116 0.887063 0.529065 1.07063 0.398855 1.29297C0.268645 1.5152 0.200012 1.76818 0.200012 2.0258V17.9743C0.200206 18.2319 0.269033 18.4846 0.399243 18.7068C0.529453 18.9289 0.716503 19.1124 0.941156 19.2384C1.16581 19.3643 1.41985 19.4281 1.67737 19.4234C1.93479 19.4186 2.18632 19.3454 2.40614 19.2112L15.4533 11.2376C15.6653 11.108 15.8404 10.9262 15.9619 10.7095C16.0834 10.4927 16.1472 10.2485 16.1472 10C16.1472 9.75159 16.0834 9.50731 15.9619 9.29059C15.8404 9.07396 15.6653 8.89203 15.4533 8.7625Z" fill="white"/>
</svg>
