<svg width="24" height="24" viewBox="0 0 24 24" fill="none" xmlns="http://www.w3.org/2000/svg">
<path opacity="0.59" d="M23.5364 21.1885C24.2433 21.916 24.1291 22.9965 23.2805 23.6024C22.9217 23.8595 22.4689 24.0002 22.0012 24C21.428 24 20.8594 23.7899 20.4644 23.3829L11.9994 14.6313L3.53717 23.3367C3.14169 23.7435 2.57346 23.9538 2.00036 23.9538C1.53272 23.954 1.07989 23.8132 0.721032 23.5562C-0.127686 22.9503 -0.242056 21.8698 0.465167 21.1423L9.39607 11.9548L0.463667 2.81351C-0.243369 2.08601 -0.129123 1.00548 0.719782 0.399588C1.56725 -0.207911 2.82783 -0.110196 3.53592 0.618909L11.9994 9.32242L20.4615 0.617088C21.1677 -0.110411 22.429 -0.208982 23.2777 0.397767C24.1264 1.00366 24.2408 2.08419 23.5335 2.81169L14.6026 11.9992L23.5364 21.1885Z" fill="#080829" fill-opacity="0.5"/>
</svg>
