<svg width="150" height="45" viewBox="0 0 150 45" fill="none" xmlns="http://www.w3.org/2000/svg">
<path d="M13.3263 36.5711C15.0105 36.5711 16.5158 36.2894 17.8421 35.7259C19.1894 35.1624 20.3263 34.4216 21.2526 33.5033C22.1789 32.5641 22.8421 31.5416 23.2421 30.4354L19.3894 28.6511C18.9263 29.8198 18.1684 30.7903 17.1158 31.5624C16.0842 32.3137 14.8211 32.6894 13.3263 32.6894C11.8526 32.6894 10.5579 32.345 9.44208 31.6563C8.32628 30.9676 7.4526 30.018 6.82102 28.8076C6.18945 27.5763 5.87366 26.1467 5.87366 24.5189C5.87366 22.8911 6.18945 21.4719 6.82102 20.2615C7.4526 19.0302 8.32628 18.0807 9.44208 17.4128C10.5579 16.7241 11.8526 16.3798 13.3263 16.3798C14.8211 16.3798 16.0842 16.7659 17.1158 17.538C18.1684 18.2894 18.9263 19.2493 19.3894 20.418L23.2421 18.6337C22.8421 17.5276 22.1789 16.5155 21.2526 15.5972C20.3263 14.658 19.1894 13.9067 17.8421 13.3433C16.5158 12.7798 15.0105 12.498 13.3263 12.498C11.642 12.498 10.0842 12.8006 8.6526 13.4059C7.22102 13.9902 5.97892 14.825 4.92629 15.9102C3.87365 16.9746 3.0526 18.2476 2.46313 19.7294C1.87366 21.1902 1.57892 22.7867 1.57892 24.5189C1.57892 26.2511 1.87366 27.858 2.46313 29.3398C3.0526 30.8006 3.87365 32.0737 4.92629 33.1589C5.97892 34.2441 7.22102 35.0893 8.6526 35.6946C10.0842 36.2789 11.642 36.5711 13.3263 36.5711ZM33.5258 36.5711C35.1889 36.5711 36.7047 36.1954 38.0731 35.4441C39.4415 34.672 40.5363 33.618 41.3573 32.2824C42.1784 30.9258 42.5889 29.3919 42.5889 27.6807C42.5889 25.9694 42.1784 24.4458 41.3573 23.1102C40.5573 21.7746 39.4731 20.7206 38.1047 19.9485C36.7363 19.1763 35.2099 18.7902 33.5258 18.7902C31.8205 18.7902 30.2836 19.1763 28.9152 19.9485C27.5468 20.7206 26.4521 21.7746 25.631 23.1102C24.831 24.4458 24.431 25.9694 24.431 27.6807C24.431 29.3919 24.831 30.9155 25.631 32.2511C26.4521 33.5867 27.5468 34.6407 28.9152 35.4128C30.3047 36.185 31.8415 36.5711 33.5258 36.5711ZM33.5258 32.8146C32.5994 32.8146 31.7678 32.5954 31.031 32.1572C30.3152 31.7189 29.7467 31.1137 29.3258 30.3415C28.9257 29.5485 28.7258 28.6616 28.7258 27.6807C28.7258 26.6998 28.9257 25.8232 29.3258 25.0511C29.7467 24.2789 30.3152 23.6737 31.031 23.2354C31.7678 22.7763 32.5994 22.5467 33.5258 22.5467C34.452 22.5467 35.2626 22.7763 35.9573 23.2354C36.6731 23.6737 37.231 24.2789 37.631 25.0511C38.052 25.8232 38.2626 26.6998 38.2626 27.6807C38.2626 28.6616 38.052 29.5485 37.631 30.3415C37.231 31.1137 36.6731 31.7189 35.9573 32.1572C35.2626 32.5954 34.452 32.8146 33.5258 32.8146ZM44.7787 36.1954H48.9156V12.498H44.7787V36.1954ZM51.7877 36.1954H55.9245V12.498H51.7877V36.1954ZM64.0073 36.5711C66.2389 36.5711 68.0283 35.8406 69.3758 34.3798V36.1954H73.2915V24.8633C73.2915 23.6737 72.9862 22.6198 72.3758 21.7015C71.7652 20.7832 70.9231 20.0737 69.8494 19.5728C68.7968 19.0511 67.5652 18.7902 66.1546 18.7902C64.4283 18.7902 62.8915 19.1972 61.5441 20.0111C60.1967 20.825 59.2705 21.8998 58.7651 23.2354L62.1442 24.8633C62.46 24.0911 62.9547 23.4754 63.6284 23.0163C64.302 22.5363 65.0915 22.2963 65.9967 22.2963C66.9442 22.2963 67.7021 22.5467 68.2705 23.0476C68.8599 23.5276 69.1547 24.1328 69.1547 24.8633V25.4267L64.0389 26.2407C62.0179 26.5745 60.5231 27.2111 59.5546 28.1502C58.5862 29.0893 58.102 30.2684 58.102 31.6876C58.102 33.1902 58.6388 34.3798 59.7125 35.2563C60.7862 36.1328 62.2178 36.5711 64.0073 36.5711ZM62.3968 31.5311C62.3968 30.3415 63.2073 29.5902 64.8283 29.2772L69.1547 28.5572V29.2459C69.1547 30.4146 68.7442 31.4059 67.9231 32.2198C67.1231 33.0337 66.0704 33.4407 64.7651 33.4407C64.0705 33.4407 63.5021 33.2737 63.06 32.9398C62.6179 32.585 62.3968 32.1154 62.3968 31.5311ZM85.5466 36.5711C87.2098 36.5711 88.694 36.185 89.9992 35.4128C91.3045 34.6198 92.336 33.5554 93.0939 32.2198C93.8518 30.8632 94.2308 29.3503 94.2308 27.6807C94.2308 26.0111 93.8518 24.5084 93.0939 23.1728C92.336 21.8163 91.3045 20.7519 89.9992 19.9798C88.694 19.1867 87.2202 18.7902 85.5781 18.7902C83.3466 18.7902 81.5887 19.4894 80.3044 20.8876V12.498H76.1676V36.1954H80.0518V34.2859C80.6834 35.0163 81.4729 35.5798 82.4202 35.9763C83.3887 36.3728 84.4308 36.5711 85.5466 36.5711ZM85.0729 32.8146C84.1676 32.8146 83.3466 32.5954 82.6097 32.1572C81.894 31.7189 81.3255 31.1137 80.9044 30.3415C80.5045 29.5694 80.3044 28.6824 80.3044 27.6807C80.3044 26.6789 80.5045 25.7919 80.9044 25.0198C81.3255 24.2476 81.894 23.6424 82.6097 23.2041C83.3466 22.7659 84.1676 22.5467 85.0729 22.5467C86.0202 22.5467 86.8518 22.7763 87.5676 23.2354C88.3045 23.6737 88.8835 24.2789 89.3044 25.0511C89.7255 25.8232 89.936 26.6998 89.936 27.6807C89.936 28.6616 89.7255 29.5485 89.3044 30.3415C88.8835 31.1137 88.3045 31.7189 87.5676 32.1572C86.8518 32.5954 86.0202 32.8146 85.0729 32.8146Z" fill="#080829"/>
<path d="M98.3953 36.1956H102.563V31.813H98.3953V36.1956Z" fill="#3F53D8"/>
<path d="M126.809 0C120.791 0.0067294 115.022 2.37942 110.767 6.59753C106.512 10.8157 104.119 16.5347 104.112 22.5V41.475C104.113 42.4096 104.488 43.3056 105.155 43.9665C105.821 44.6273 106.725 44.9989 107.667 45H126.809C132.829 45 138.602 42.6295 142.858 38.4099C147.115 34.1903 149.507 28.4674 149.507 22.5C149.507 16.5326 147.115 10.8097 142.858 6.59009C138.602 2.37053 132.829 0 126.809 0Z" fill="#3F53D8"/>
<path d="M114.426 17.2566H118.563V12.874H114.426V17.2566ZM114.426 36.1958H118.563V19.1662H114.426V36.1958ZM129.836 36.5714C131.499 36.5714 133.014 36.1958 134.383 35.4445C135.751 34.6723 136.846 33.6183 137.667 32.2827C138.489 30.9262 138.899 29.3923 138.899 27.681C138.899 25.9697 138.489 24.4462 137.667 23.1105C136.867 21.7749 135.783 20.7209 134.415 19.9488C133.046 19.1767 131.519 18.7905 129.836 18.7905C128.131 18.7905 126.593 19.1767 125.225 19.9488C123.857 20.7209 122.762 21.7749 121.941 23.1105C121.141 24.4462 120.74 25.9697 120.74 27.681C120.74 29.3923 121.141 30.9158 121.941 32.2514C122.762 33.587 123.857 34.641 125.225 35.4132C126.615 36.1853 128.151 36.5714 129.836 36.5714ZM129.836 32.8149C128.909 32.8149 128.077 32.5958 127.341 32.1575C126.625 31.7192 126.056 31.114 125.636 30.3419C125.235 29.5488 125.036 28.6619 125.036 27.681C125.036 26.7001 125.235 25.8236 125.636 25.0514C126.056 24.2793 126.625 23.674 127.341 23.2358C128.077 22.7767 128.909 22.5471 129.836 22.5471C130.762 22.5471 131.573 22.7767 132.267 23.2358C132.983 23.674 133.54 24.2793 133.941 25.0514C134.362 25.8236 134.573 26.7001 134.573 27.681C134.573 28.6619 134.362 29.5488 133.941 30.3419C133.54 31.114 132.983 31.7192 132.267 32.1575C131.573 32.5958 130.762 32.8149 129.836 32.8149Z" fill="white"/>
</svg>
