<svg width="178" height="100" viewBox="0 0 178 100" fill="none" xmlns="http://www.w3.org/2000/svg">
<path d="M41.9613 48.371C41.5844 48.7523 41.2958 49.2124 41.116 49.7187C40.9362 50.225 40.8697 50.7649 40.9211 51.3L40.9032 51.282C40.956 51.9118 40.8716 52.5457 40.6557 53.1393C40.4398 53.733 40.0977 54.2721 39.6532 54.7191C39.2088 55.166 38.6727 55.51 38.0823 55.7271C37.4921 55.9442 36.8617 56.0292 36.2354 55.976L36.2533 55.994C35.5041 55.9239 34.7516 56.0878 34.0984 56.4635C33.4453 56.8392 32.9232 57.4083 32.6035 58.0933C32.2837 58.7783 32.1819 59.5457 32.3118 60.291C32.4416 61.0364 32.797 61.7233 33.3292 62.2581C33.8616 62.7929 34.545 63.1496 35.2863 63.2795C36.0275 63.4095 36.7906 63.3063 37.4715 62.9842C38.1524 62.662 38.7178 62.1365 39.0908 61.4794C39.4638 60.8222 39.6262 60.0653 39.5558 59.312L39.5747 59.33C39.5218 58.7001 39.6062 58.0663 39.8221 57.4726C40.038 56.879 40.3801 56.3399 40.8245 55.8929C41.269 55.446 41.8051 55.1019 42.3954 54.8848C42.9858 54.6677 43.6161 54.5828 44.2424 54.636L44.2235 54.618C44.8355 54.6733 45.4515 54.5724 46.0145 54.3246C46.5773 54.0768 47.069 53.6901 47.4437 53.2004C47.8184 52.7107 48.0641 52.1337 48.158 51.523C48.252 50.9124 48.1912 50.2877 47.9811 49.707C47.7711 49.1263 47.4187 48.6083 46.9566 48.201C46.4945 47.7937 45.9376 47.5103 45.3376 47.3771C44.7376 47.2439 44.1138 47.2651 43.5241 47.4388C42.9344 47.6126 42.3979 47.9332 41.9642 48.371H41.9613Z" fill="#080829"/>
<path d="M34.6255 53.636L34.6066 53.618C35.1389 53.6719 35.6765 53.6062 36.1805 53.4256C36.6845 53.245 37.1422 52.9541 37.5207 52.5738C37.8992 52.1935 38.1889 51.7333 38.3688 51.2266C38.5488 50.7199 38.6146 50.1794 38.5614 49.644L38.5803 49.662C38.5274 49.0321 38.6118 48.3983 38.8277 47.8046C39.0435 47.211 39.3857 46.6719 39.8301 46.2249C40.2746 45.778 40.8107 45.4339 41.401 45.2169C41.9914 44.9998 42.6216 44.9148 43.248 44.968L43.2291 44.95C43.9784 45.0208 44.7311 44.8574 45.3846 44.4821C46.0382 44.1068 46.5607 43.538 46.8809 42.8531C47.2011 42.1682 47.3034 41.4007 47.174 40.6552C47.0445 39.9097 46.6894 39.2225 46.1573 38.6874C45.6252 38.1522 44.9418 37.7952 44.2005 37.665C43.4591 37.5347 42.6958 37.6377 42.0149 37.9597C41.3338 38.2817 40.7681 38.8071 40.395 39.4643C40.0218 40.1215 39.8593 40.8785 39.9297 41.632L39.9118 41.613C39.9648 42.2429 39.8804 42.8768 39.6647 43.4706C39.4489 44.0643 39.1067 44.6035 38.6622 45.0505C38.2177 45.4974 37.6816 45.8415 37.0911 46.0585C36.5007 46.2755 35.8704 46.3603 35.244 46.307L35.2619 46.326C34.7295 46.2721 34.1919 46.3378 33.6879 46.5184C33.184 46.6989 32.7261 46.9899 32.3477 47.3702C31.9692 47.7505 31.6795 48.2107 31.4995 48.7174C31.3196 49.2241 31.2538 49.7646 31.3071 50.3L31.2892 50.282C31.3419 50.9118 31.2573 51.5456 31.0414 52.1392C30.8254 52.7327 30.4833 53.2718 30.0389 53.7187C29.5944 54.1656 29.0584 54.5096 28.4682 54.7268C27.878 54.9439 27.2477 55.029 26.6214 54.976L26.6393 54.994C25.89 54.9232 25.1373 55.0866 24.4837 55.4619C23.8302 55.8372 23.3078 56.406 22.9876 57.0909C22.6673 57.7758 22.5649 58.5433 22.6945 59.2888C22.824 60.0343 23.179 60.7215 23.7112 61.2566C24.2433 61.7918 24.9267 62.1488 25.668 62.279C26.4093 62.4092 27.1725 62.3063 27.8536 61.9843C28.5347 61.6623 29.1003 61.1369 29.4735 60.4796C29.8466 59.8224 30.0091 59.0655 29.9388 58.312L29.9577 58.33C29.9048 57.7001 29.9892 57.0663 30.2051 56.4726C30.421 55.879 30.7632 55.3399 31.2076 54.8929C31.6521 54.446 32.1882 54.1019 32.7784 53.8848C33.3688 53.6678 33.9991 53.5828 34.6255 53.636Z" fill="#080829"/>
<path d="M27.9609 51.6289C28.3379 51.2477 28.6265 50.7875 28.8061 50.2812C28.9856 49.7749 29.052 49.2349 29.0001 48.6999L29.019 48.7179C28.9661 48.0879 29.0506 47.4538 29.2666 46.86C29.4826 46.2662 29.8248 45.727 30.2695 45.28C30.7142 44.833 31.2506 44.489 31.8412 44.2721C32.4317 44.0551 33.0622 43.9704 33.6887 44.0239L33.6698 44.0059C34.4189 44.0765 35.1713 43.913 35.8245 43.5377C36.4778 43.1625 37 42.5938 37.32 41.9091C37.64 41.2245 37.7423 40.4572 37.6128 39.712C37.4833 38.9668 37.1284 38.2798 36.5964 37.7449C36.0645 37.21 35.3814 36.853 34.6404 36.7228C33.8992 36.5926 33.1363 36.6954 32.4555 37.0172C31.7747 37.3391 31.2091 37.8642 30.8359 38.5211C30.4628 39.178 30.3003 39.9347 30.3704 40.6879L30.3525 40.6699C30.4054 41.2998 30.3209 41.9336 30.1051 42.5273C29.8892 43.1209 29.5471 43.66 29.1026 44.107C28.6582 44.5539 28.122 44.898 27.5317 45.115C26.9414 45.3321 26.3111 45.4171 25.6847 45.3639L25.7026 45.3819C25.0906 45.3267 24.4747 45.4278 23.9118 45.6757C23.349 45.9236 22.8576 46.3104 22.483 46.8002C22.1084 47.2899 21.8628 47.8669 21.7689 48.4775C21.675 49.0882 21.736 49.7128 21.9461 50.2934C22.1562 50.8741 22.5086 51.392 22.9707 51.7992C23.4329 52.2065 23.9898 52.4898 24.5897 52.623C25.1898 52.7561 25.8135 52.7348 26.4032 52.5611C26.9928 52.3873 27.5293 52.0667 27.9629 51.6289H27.9609Z" fill="#080829"/>
<path d="M58.7649 41.655H61.7183V56.108H58.7649V41.655Z" fill="#080829"/>
<path d="M63.3909 51.1591C63.3867 50.1204 63.6892 49.1039 64.26 48.2383C64.8308 47.3727 65.6442 46.6969 66.5973 46.2965C67.5503 45.8962 68.6001 45.7893 69.6136 45.9894C70.6271 46.1894 71.5588 46.6875 72.2906 47.4205C73.0224 48.1534 73.5214 49.0883 73.7244 50.1067C73.9274 51.1251 73.8254 52.1812 73.431 53.1412C73.0367 54.1011 72.368 54.9219 71.5095 55.4993C70.651 56.0768 69.6414 56.3851 68.6086 56.3851C67.9229 56.3929 67.2426 56.2633 66.6074 56.0037C65.9723 55.7441 65.3948 55.3598 64.9091 54.8732C64.4233 54.3867 64.0388 53.8076 63.7781 53.1699C63.5175 52.5322 63.3858 51.8486 63.3909 51.1591ZM70.8729 51.1591C70.8605 50.7114 70.7172 50.2773 70.4609 49.911C70.2046 49.5448 69.8466 49.2626 69.4317 49.0999C69.0168 48.9371 68.5633 48.9009 68.1281 48.9959C67.6928 49.0909 67.2952 49.3127 66.9846 49.6338C66.674 49.9548 66.4645 50.3608 66.3822 50.801C66.2998 51.2411 66.3484 51.6959 66.5217 52.1085C66.6949 52.521 66.9853 52.8731 67.3565 53.1206C67.7277 53.3681 68.1632 53.5001 68.6086 53.5001C68.9136 53.5083 69.217 53.4528 69.4996 53.3372C69.7822 53.2216 70.0379 53.0484 70.2507 52.8285C70.4635 52.6085 70.6285 52.3466 70.7356 52.0593C70.8427 51.772 70.8895 51.4655 70.8729 51.1591Z" fill="#080829"/>
<path d="M85.5971 46.2091V55.6091C85.5971 58.9351 83.0176 60.3411 80.3993 60.3411C79.4774 60.4105 78.5544 60.2232 77.7313 59.7999C76.9083 59.3765 76.2171 58.7334 75.7335 57.9411L78.2534 56.4761C78.4566 56.8891 78.7805 57.2298 79.1816 57.4527C79.5827 57.6755 80.0419 57.7699 80.4978 57.7231C80.7891 57.7637 81.0858 57.7379 81.366 57.6476C81.646 57.5573 81.9024 57.4049 82.116 57.2015C82.3296 56.9981 82.4949 56.7491 82.5998 56.4727C82.7049 56.1964 82.7466 55.8999 82.7223 55.6051V54.7001C82.3764 55.1256 81.9362 55.4637 81.437 55.6872C80.9377 55.9107 80.3932 56.0134 79.8474 55.9871C78.5485 55.9459 77.3165 55.3981 76.4122 54.4595C75.5079 53.521 75.0022 52.2654 75.0022 50.9586C75.0022 49.6518 75.5079 48.3962 76.4122 47.4577C77.3165 46.5191 78.5485 45.9713 79.8474 45.9301C80.3932 45.9038 80.9377 46.0065 81.437 46.23C81.9362 46.4535 82.3764 46.7916 82.7223 47.2171V46.2071L85.5971 46.2091ZM82.7233 50.9601C82.7431 50.4815 82.62 50.0078 82.3699 49.6001C82.1198 49.1923 81.7541 48.8692 81.3198 48.6723C80.8856 48.4753 80.4026 48.4136 79.9332 48.495C79.4638 48.5764 79.0292 48.7972 78.6856 49.1291C78.3421 49.4609 78.1051 49.8885 78.0052 50.3569C77.9053 50.8254 77.9471 51.3131 78.1252 51.7574C78.3034 52.2017 78.6096 52.5823 79.0046 52.8501C79.3996 53.1179 79.8652 53.2607 80.3416 53.2601C80.652 53.2819 80.9633 53.2381 81.2558 53.1315C81.5483 53.0249 81.8153 52.8578 82.0396 52.6412C82.2639 52.4245 82.4407 52.163 82.5585 51.8734C82.6762 51.5839 82.7323 51.2728 82.7233 50.9601Z" fill="#080829"/>
<path d="M87.2697 51.1591C87.2657 50.1204 87.5682 49.1039 88.1389 48.2383C88.7097 47.3727 89.5232 46.6969 90.4762 46.2965C91.4293 45.8962 92.479 45.7893 93.4925 45.9894C94.506 46.1894 95.4376 46.6875 96.1694 47.4205C96.9012 48.1534 97.4002 49.0883 97.6033 50.1067C97.8063 51.1251 97.7042 52.1812 97.3099 53.1412C96.9156 54.1011 96.2469 54.9219 95.3884 55.4993C94.5299 56.0768 93.5203 56.3851 92.4874 56.3851C91.8019 56.3929 91.1216 56.2633 90.4864 56.0037C89.8511 55.7441 89.2738 55.3598 88.788 54.8732C88.3022 54.3867 87.9177 53.8076 87.6571 53.1699C87.3963 52.5322 87.2647 51.8486 87.2697 51.1591ZM94.7517 51.1591C94.7394 50.7114 94.5962 50.2773 94.3398 49.911C94.0834 49.5448 93.7255 49.2626 93.3106 49.0999C92.8956 48.9371 92.4423 48.9009 92.007 48.9959C91.5718 49.0909 91.174 49.3127 90.8634 49.6338C90.553 49.9548 90.3435 50.3608 90.2611 50.801C90.1788 51.2411 90.2272 51.6959 90.4005 52.1085C90.5739 52.521 90.8642 52.8731 91.2355 53.1206C91.6066 53.3681 92.0421 53.5001 92.4874 53.5001C92.7924 53.5083 93.0958 53.4528 93.3785 53.3372C93.6611 53.2216 93.9169 53.0484 94.1296 52.8285C94.3423 52.6085 94.5075 52.3466 94.6146 52.0593C94.7216 51.772 94.7683 51.4655 94.7517 51.1591Z" fill="#080829"/>
<path d="M99.0823 43.5559C99.0823 43.2034 99.1862 42.8589 99.3809 42.5659C99.5756 42.2728 99.852 42.0444 100.176 41.9095C100.5 41.7747 100.856 41.7394 101.2 41.8081C101.544 41.8769 101.86 42.0466 102.107 42.2958C102.355 42.545 102.524 42.8626 102.593 43.2082C102.66 43.5539 102.625 43.9122 102.491 44.2378C102.357 44.5634 102.13 44.8418 101.839 45.0376C101.548 45.2334 101.204 45.3379 100.854 45.3379C100.386 45.3332 99.9376 45.144 99.6064 44.8108C99.2752 44.4776 99.0869 44.0271 99.0823 43.5559ZM99.3806 46.2089H102.335V56.1089H99.3766L99.3806 46.2089Z" fill="#080829"/>
<path d="M115.087 51.159C115.121 51.8133 115.027 52.4679 114.808 53.0852C114.59 53.7025 114.252 54.2703 113.816 54.756C113.378 55.2416 112.85 55.6356 112.26 55.9152C111.671 56.1947 111.032 56.3544 110.382 56.385C109.835 56.415 109.287 56.3222 108.78 56.1133C108.273 55.9043 107.818 55.5845 107.449 55.177V60.068H104.496V46.209H107.449V47.139C107.818 46.7318 108.274 46.4122 108.781 46.2035C109.288 45.9947 109.835 45.902 110.382 45.932C111.033 45.9625 111.672 46.1221 112.26 46.4017C112.85 46.6813 113.379 47.0753 113.816 47.5611C114.253 48.0469 114.591 48.6149 114.809 49.2324C115.027 49.8498 115.122 50.5046 115.087 51.159ZM112.134 51.159C112.122 50.6957 111.975 50.2461 111.711 49.8664C111.447 49.4868 111.077 49.194 110.647 49.0248C110.219 48.8555 109.749 48.8172 109.299 48.9148C108.848 49.0123 108.437 49.2413 108.115 49.5731C107.792 49.905 107.576 50.3249 107.49 50.7803C107.405 51.2357 107.454 51.7063 107.633 52.1334C107.812 52.5605 108.113 52.9249 108.496 53.1812C108.88 53.4374 109.332 53.5741 109.792 53.574C110.108 53.5882 110.425 53.5349 110.719 53.4177C111.013 53.3006 111.28 53.1221 111.502 52.8941C111.722 52.666 111.893 52.3936 112.002 52.0946C112.111 51.7956 112.156 51.4767 112.134 51.159Z" fill="#080829"/>
<path d="M124.201 53.1381C124.201 55.4151 122.233 56.3851 120.107 56.3851C119.248 56.4634 118.386 56.2807 117.631 55.8607C116.876 55.4406 116.264 54.8026 115.874 54.0291L118.433 52.5641C118.536 52.9217 118.759 53.2327 119.062 53.4453C119.366 53.6578 119.734 53.7591 120.103 53.7321C120.811 53.7321 121.166 53.5141 121.166 53.1191C121.166 52.0291 116.323 52.6041 116.323 49.1791C116.323 47.0201 118.134 45.9321 120.182 45.9321C120.951 45.9076 121.713 46.0912 122.388 46.4637C123.064 46.8363 123.627 47.3841 124.02 48.0501L121.5 49.4161C121.39 49.1568 121.206 48.9359 120.971 48.781C120.737 48.6261 120.462 48.5441 120.182 48.5451C119.67 48.5451 119.354 48.7451 119.354 49.0991C119.358 50.2281 124.201 49.4751 124.201 53.1381Z" fill="#080829"/>
<path d="M134.99 46.209V56.109H132.036V55.178C131.695 55.5888 131.263 55.9125 130.773 56.1225C130.284 56.3325 129.753 56.4228 129.222 56.386C127.233 56.386 125.543 54.961 125.543 52.286V46.209H128.496V51.851C128.471 52.0868 128.498 52.3252 128.575 52.5495C128.65 52.7739 128.775 52.9789 128.938 53.1502C129.101 53.3215 129.299 53.4551 129.518 53.5415C129.737 53.628 129.973 53.6654 130.208 53.651C131.291 53.651 132.039 53.018 132.039 51.612V46.212L134.99 46.209Z" fill="#080829"/>
<path d="M151.924 50.03V56.108H148.971V50.287C148.971 49.297 148.499 48.664 147.554 48.664C146.57 48.664 146.018 49.357 146.018 50.525V56.108H143.065V50.287C143.065 49.297 142.593 48.664 141.647 48.664C140.663 48.664 140.112 49.357 140.112 50.525V56.108H137.158V46.208H140.112V47.118C140.418 46.7143 140.82 46.3941 141.28 46.1868C141.742 45.9794 142.247 45.8915 142.75 45.931C143.255 45.9061 143.758 46.0134 144.211 46.2422C144.662 46.4711 145.047 46.8138 145.329 47.237C145.656 46.7943 146.089 46.4423 146.588 46.2139C147.088 45.9855 147.637 45.8882 148.184 45.931C150.444 45.932 151.924 47.555 151.924 50.03Z" fill="#080829"/>
<path d="M154.422 46.148C155.633 46.148 156.614 45.1612 156.614 43.944C156.614 42.7268 155.633 41.74 154.422 41.74C153.212 41.74 152.231 42.7268 152.231 43.944C152.231 45.1612 153.212 46.148 154.422 46.148Z" fill="#080829"/>
</svg>
