<svg width="178" height="100" viewBox="0 0 178 100" fill="none" xmlns="http://www.w3.org/2000/svg">
<path d="M67.8329 57.3901C67.2414 57.4223 66.6564 57.2532 66.1722 56.9101C65.9699 56.7593 65.8071 56.5612 65.698 56.333C65.5888 56.1047 65.5365 55.8532 65.5458 55.6001V46.3301C65.5409 46.2909 65.5451 46.251 65.5578 46.2136C65.5706 46.1762 65.5917 46.1422 65.6194 46.1143C65.6473 46.0863 65.6811 46.0651 65.7183 46.0522C65.7555 46.0394 65.7951 46.0352 65.8341 46.0401H67.5048C67.6937 46.0401 67.7832 46.1401 67.7832 46.3301V54.8801C67.7832 55.2601 67.9522 55.4501 68.3003 55.4501C68.4478 55.4562 68.5953 55.4394 68.7378 55.4001C68.9367 55.4001 69.0461 55.4601 69.056 55.6401L69.2052 56.8901C69.2124 56.9265 69.2117 56.9641 69.2031 57.0003C69.1947 57.0364 69.1786 57.0703 69.156 57.0997C69.1333 57.1291 69.1048 57.1532 69.072 57.1706C69.0393 57.1879 69.0033 57.1979 68.9664 57.2001C68.6006 57.3216 68.2182 57.3857 67.8329 57.3901Z" fill="#080829"/>
<path d="M77.23 56.32C76.3906 57.0175 75.3358 57.399 74.2468 57.399C73.1579 57.399 72.103 57.0175 71.2635 56.32C70.5258 55.571 70.1118 54.5593 70.1118 53.505C70.1118 52.4507 70.5258 51.439 71.2635 50.69C72.1047 49.9961 73.1589 49.6169 74.2468 49.6169C75.3348 49.6169 76.3889 49.9961 77.23 50.69C77.9509 51.4459 78.3533 52.4527 78.3533 53.5C78.3533 54.5473 77.9509 55.5541 77.23 56.31V56.32ZM72.8347 55C73.2243 55.3549 73.7312 55.5514 74.2567 55.5514C74.7824 55.5514 75.2892 55.3549 75.6787 55C76.0314 54.5924 76.2256 54.0703 76.2256 53.53C76.2256 52.9897 76.0314 52.4677 75.6787 52.06C75.2892 51.7052 74.7824 51.5086 74.2567 51.5086C73.7312 51.5086 73.2243 51.7052 72.8347 52.06C72.4822 52.4677 72.288 52.9897 72.288 53.53C72.288 54.0703 72.4822 54.5924 72.8347 55Z" fill="#080829"/>
<path d="M87.5521 49.8699C87.7411 49.8699 87.8306 49.9699 87.8306 50.1599V57.3299C87.8479 57.8138 87.7579 58.2956 87.5669 58.7401C87.376 59.1847 87.0889 59.5809 86.7268 59.8999C85.9227 60.5894 84.8886 60.9467 83.833 60.8999C82.8795 60.9336 81.9388 60.6718 81.1382 60.1499C80.7963 59.9242 80.5042 59.6301 80.2801 59.286C80.056 58.942 79.9047 58.5553 79.8355 58.1499C79.8355 57.9499 79.8355 57.8599 80.104 57.8599H81.7746C81.8455 57.8623 81.9142 57.8853 81.9725 57.9261C82.0307 57.967 82.0759 58.0238 82.1028 58.0899C82.211 58.3936 82.427 58.6464 82.7093 58.7999C83.0533 58.9784 83.4361 59.0677 83.8231 59.0599C84.0566 59.0728 84.2903 59.0387 84.5105 58.9597C84.7307 58.8808 84.9331 58.7584 85.1059 58.5999C85.2636 58.4341 85.3864 58.2378 85.4667 58.023C85.547 57.8082 85.5833 57.5792 85.5733 57.3499V56.7199C84.9751 57.1623 84.2471 57.3911 83.5049 57.3699C82.9854 57.3889 82.4674 57.3021 81.9821 57.1148C81.4969 56.9275 81.0541 56.6435 80.6807 56.2799C79.9638 55.534 79.563 54.5373 79.563 53.4999C79.563 52.4626 79.9638 51.4658 80.6807 50.7199C81.0559 50.3595 81.4991 50.0782 81.9842 49.8928C82.4692 49.7073 82.9863 49.6213 83.5049 49.6399C84.2686 49.6196 85.0161 49.8631 85.623 50.3299V50.1699C85.6184 50.1316 85.6224 50.0927 85.6346 50.0561C85.6468 50.0195 85.667 49.9862 85.6937 49.9584C85.7203 49.9306 85.7527 49.9092 85.7887 49.8956C85.8246 49.882 85.8631 49.8767 85.9014 49.8799L87.5521 49.8699ZM83.6938 55.5899C83.95 55.5979 84.2047 55.5492 84.4402 55.4472C84.6756 55.3453 84.8858 55.1926 85.0562 54.9999C85.3867 54.5706 85.5661 54.0429 85.5661 53.4999C85.5661 52.9569 85.3867 52.4293 85.0562 51.9999C84.8864 51.8098 84.6775 51.6594 84.4438 51.5592C84.2102 51.459 83.9575 51.4115 83.7038 51.4199C83.4446 51.4117 83.1868 51.4602 82.9481 51.5621C82.7094 51.664 82.4956 51.8168 82.3215 52.0099C81.9553 52.4206 81.7627 52.9587 81.7845 53.5099C81.7665 54.0557 81.9549 54.5881 82.3116 54.9999C82.4861 55.1925 82.7 55.345 82.9386 55.4468C83.1771 55.5486 83.4348 55.5974 83.6938 55.5899Z" fill="#080829"/>
<path d="M96.4124 56.3201C95.5713 57.014 94.517 57.3932 93.4291 57.3932C92.3412 57.3932 91.287 57.014 90.4459 56.3201C89.7244 55.5625 89.3217 54.554 89.3217 53.5051C89.3217 52.4561 89.7244 51.4477 90.4459 50.6901C91.2877 49.998 92.3417 49.6199 93.4291 49.6199C94.5165 49.6199 95.5705 49.998 96.4124 50.6901C97.1331 51.446 97.5356 52.4528 97.5356 53.5001C97.5356 54.5474 97.1331 55.5542 96.4124 56.3101V56.3201ZM92.0071 55.0001C92.1977 55.1825 92.4225 55.325 92.6683 55.4194C92.914 55.5138 93.176 55.5582 93.4391 55.5501C93.7004 55.5569 93.9605 55.5118 94.2045 55.4175C94.4485 55.3231 94.6716 55.1813 94.8611 55.0001C95.2078 54.5897 95.3983 54.0687 95.3983 53.5301C95.3983 52.9915 95.2078 52.4705 94.8611 52.0601C94.6716 51.8789 94.4485 51.7371 94.2045 51.6427C93.9605 51.5484 93.7004 51.5033 93.4391 51.5101C93.176 51.5019 92.914 51.5464 92.6683 51.6408C92.4225 51.7352 92.1977 51.8777 92.0071 52.0601C91.6603 52.4705 91.4698 52.9915 91.4698 53.5301C91.4698 54.0687 91.6603 54.5897 92.0071 55.0001Z" fill="#080829"/>
<path d="M101.126 48.1701C100.863 48.4015 100.525 48.529 100.176 48.529C99.8272 48.529 99.4891 48.4015 99.2264 48.1701C99.1073 48.057 99.0124 47.9206 98.9474 47.7693C98.8826 47.618 98.8491 47.4549 98.8491 47.2901C98.8491 47.1253 98.8826 46.9623 98.9474 46.8109C99.0124 46.6596 99.1073 46.5232 99.2264 46.4101C99.4921 46.1845 99.8282 46.0608 100.176 46.0608C100.524 46.0608 100.86 46.1845 101.126 46.4101C101.245 46.5232 101.34 46.6596 101.405 46.8109C101.47 46.9623 101.503 47.1253 101.503 47.2901C101.503 47.4549 101.47 47.618 101.405 47.7693C101.34 47.9206 101.245 48.057 101.126 48.1701ZM101.335 57.3901C100.744 57.4193 100.159 57.2504 99.674 56.9101C99.4752 56.7571 99.3148 56.5583 99.2076 56.3304C99.1003 56.1025 99.0488 55.8521 99.0574 55.6001V50.1601C99.0526 50.1209 99.0567 50.081 99.0695 50.0436C99.0823 50.0062 99.1034 49.9723 99.1312 49.9443C99.159 49.9163 99.1928 49.8951 99.23 49.8823C99.2672 49.8694 99.3068 49.8653 99.3458 49.8701H101.016C101.205 49.8701 101.295 49.9701 101.295 50.1601V54.8801C101.295 55.2601 101.464 55.4501 101.802 55.4501C101.953 55.4556 102.103 55.4387 102.25 55.4001C102.448 55.4001 102.558 55.4601 102.568 55.6401L102.717 56.8901C102.724 56.9266 102.723 56.9641 102.715 57.0003C102.706 57.0364 102.69 57.0703 102.667 57.0997C102.645 57.1291 102.617 57.1533 102.584 57.1706C102.551 57.1879 102.515 57.198 102.478 57.2001C102.109 57.3224 101.724 57.3865 101.335 57.3901Z" fill="#080829"/>
<path d="M108.862 49.63C109.384 49.6093 109.905 49.6942 110.394 49.8797C110.882 50.0652 111.329 50.3476 111.706 50.71C112.409 51.4689 112.8 52.4677 112.8 53.505C112.8 54.5423 112.409 55.5411 111.706 56.3C111.331 56.6656 110.884 56.9508 110.396 57.1381C109.907 57.3255 109.385 57.4112 108.862 57.39C108.118 57.4067 107.388 57.1784 106.784 56.74V60.35C106.784 60.54 106.685 60.63 106.496 60.63H104.825C104.787 60.6372 104.748 60.6349 104.711 60.6234C104.674 60.6118 104.64 60.5914 104.612 60.5638C104.585 60.5362 104.565 60.5023 104.554 60.4651C104.542 60.4278 104.54 60.3883 104.547 60.35V52.15C104.559 52.0698 104.552 51.988 104.526 51.911C104.501 51.8341 104.458 51.7641 104.4 51.7068C104.344 51.6495 104.274 51.6064 104.198 51.5809C104.121 51.5554 104.04 51.5482 103.96 51.56H103.632C103.413 51.56 103.304 51.48 103.304 51.32V50.14C103.299 50.067 103.319 49.9944 103.36 49.9344C103.402 49.8743 103.463 49.8304 103.532 49.81C103.876 49.6843 104.24 49.6233 104.606 49.63C104.971 49.5975 105.337 49.6753 105.658 49.8535C105.979 50.0317 106.239 50.302 106.406 50.63C106.726 50.3042 107.109 50.0474 107.532 49.8755C107.955 49.7036 108.407 49.62 108.862 49.63ZM107.311 55C107.488 55.1864 107.701 55.3347 107.938 55.436C108.173 55.5373 108.427 55.5895 108.683 55.5895C108.94 55.5895 109.194 55.5373 109.429 55.436C109.665 55.3347 109.879 55.1864 110.056 55C110.43 54.5811 110.626 54.0322 110.603 53.47C110.628 52.9073 110.432 52.3572 110.056 51.94C109.879 51.7537 109.665 51.6054 109.429 51.504C109.194 51.4027 108.94 51.3505 108.683 51.3505C108.427 51.3505 108.173 51.4027 107.938 51.504C107.701 51.6054 107.488 51.7537 107.311 51.94C106.949 52.3646 106.761 52.9113 106.784 53.47C106.764 54.0283 106.952 54.5739 107.311 55Z" fill="#080829"/>
<path d="M117.494 57.3899C116.601 57.4268 115.716 57.2121 114.938 56.7699C114.626 56.5809 114.361 56.3236 114.161 56.0172C113.961 55.7108 113.832 55.3631 113.785 54.9999C113.785 54.7999 113.854 54.6999 114.073 54.6999H115.535C115.605 54.7026 115.672 54.7246 115.73 54.7634C115.788 54.8023 115.834 54.8564 115.863 54.9199C116.072 55.4599 116.619 55.7299 117.494 55.7299C117.799 55.7439 118.103 55.6821 118.379 55.5499C118.474 55.5067 118.556 55.4383 118.616 55.352C118.675 55.2657 118.71 55.1647 118.717 55.0599C118.717 54.7999 118.558 54.6199 118.24 54.4999C117.862 54.3736 117.472 54.2897 117.076 54.2499C116.607 54.1965 116.143 54.113 115.684 53.9999C115.239 53.8985 114.833 53.6651 114.521 53.3299C114.337 53.1021 114.201 52.8386 114.123 52.5559C114.044 52.2732 114.024 51.9772 114.064 51.6865C114.104 51.3957 114.203 51.1163 114.356 50.8658C114.508 50.6152 114.71 50.3988 114.948 50.2299C115.665 49.7708 116.505 49.5471 117.355 49.5899C118.176 49.562 118.99 49.7664 119.702 50.1799C119.988 50.3434 120.236 50.5691 120.424 50.8407C120.614 51.1123 120.741 51.4229 120.795 51.7499C120.795 51.9499 120.706 52.0499 120.527 52.0499H119.055C118.993 52.0536 118.932 52.0384 118.878 52.0063C118.825 51.9742 118.783 51.9266 118.757 51.8699C118.658 51.6331 118.473 51.4433 118.24 51.3399C117.976 51.2013 117.682 51.1324 117.385 51.1399C117.093 51.124 116.802 51.1824 116.539 51.3099C116.447 51.3459 116.366 51.4089 116.31 51.4909C116.253 51.5729 116.222 51.67 116.221 51.7699C116.227 51.9067 116.277 52.0378 116.363 52.144C116.449 52.2501 116.566 52.3258 116.698 52.3599C117.08 52.5046 117.477 52.6053 117.882 52.6599C118.347 52.7215 118.809 52.8082 119.264 52.9199C119.709 53.0214 120.115 53.2547 120.427 53.5899C120.594 53.7746 120.724 53.9907 120.807 54.2259C120.891 54.461 120.928 54.7105 120.915 54.9599C120.924 55.3056 120.842 55.6476 120.68 55.9526C120.518 56.2575 120.28 56.515 119.99 56.6999C119.247 57.1795 118.376 57.4202 117.494 57.3899Z" fill="#080829"/>
<path d="M131.426 56.8901C131.432 56.9256 131.43 56.9619 131.422 56.9968C131.413 57.0317 131.398 57.0646 131.376 57.0935C131.355 57.1224 131.328 57.1467 131.297 57.165C131.267 57.1833 131.233 57.1952 131.197 57.2001C130.834 57.3193 130.455 57.3833 130.073 57.3901C129.695 57.4295 129.314 57.3701 128.965 57.2176C128.616 57.0652 128.313 56.825 128.084 56.5201C127.382 57.1274 126.473 57.439 125.549 57.3901C125.119 57.41 124.69 57.3393 124.29 57.1826C123.889 57.0259 123.525 56.7866 123.222 56.4801C122.92 56.159 122.687 55.78 122.535 55.3659C122.382 54.9518 122.315 54.511 122.337 54.0701V50.1601C122.337 49.9701 122.426 49.8701 122.615 49.8701H124.286C124.475 49.8701 124.564 49.9701 124.564 50.1601V53.7701C124.546 54.2199 124.698 54.6597 124.992 55.0001C125.138 55.156 125.316 55.2787 125.513 55.3598C125.71 55.4408 125.923 55.4785 126.135 55.4701C126.353 55.4797 126.571 55.4457 126.776 55.3702C126.981 55.2947 127.169 55.1791 127.329 55.0301C127.48 54.8731 127.598 54.6864 127.675 54.4818C127.752 54.2771 127.786 54.0587 127.776 53.8401V50.1601C127.776 49.9701 127.866 49.8701 128.055 49.8701H129.745C129.934 49.8701 130.024 49.9701 130.024 50.1601V54.8701C130.024 55.2601 130.193 55.4501 130.521 55.4501C130.675 55.4561 130.829 55.4393 130.978 55.4001C131.016 55.3895 131.055 55.3876 131.094 55.3945C131.132 55.4015 131.168 55.4171 131.2 55.4402C131.232 55.4633 131.258 55.4933 131.276 55.5279C131.294 55.5625 131.304 55.6009 131.306 55.6401L131.426 56.8901Z" fill="#080829"/>
<path d="M147.227 56.8901C147.236 56.9259 147.237 56.9633 147.23 56.9994C147.222 57.0356 147.207 57.0698 147.185 57.0994C147.163 57.129 147.135 57.1534 147.103 57.1708C147.071 57.1882 147.035 57.1982 146.998 57.2001C146.628 57.321 146.243 57.385 145.855 57.3901C145.263 57.4208 144.679 57.2518 144.194 56.9101C143.984 56.7637 143.814 56.5676 143.698 56.3391C143.581 56.1105 143.523 55.8567 143.528 55.6001V53.2501C143.549 52.8017 143.399 52.362 143.11 52.0201C142.971 51.8638 142.798 51.7406 142.606 51.6593C142.413 51.578 142.205 51.5407 141.996 51.5501C141.808 51.543 141.621 51.5788 141.448 51.6551C141.276 51.7313 141.124 51.8458 141.002 51.9901C140.739 52.3252 140.605 52.7439 140.624 53.1701V56.8601C140.624 57.0501 140.534 57.1501 140.346 57.1501H138.665C138.626 57.155 138.586 57.1508 138.55 57.138C138.512 57.1251 138.478 57.1039 138.45 57.0759C138.422 57.048 138.401 57.014 138.389 56.9766C138.376 56.9392 138.372 56.8994 138.377 56.8601V53.2501C138.398 52.8066 138.26 52.37 137.989 52.0201C137.867 51.8731 137.715 51.7548 137.543 51.6736C137.372 51.5923 137.184 51.5502 136.994 51.5501C136.792 51.5419 136.59 51.5768 136.401 51.6526C136.212 51.7285 136.042 51.8435 135.901 51.9901C135.616 52.3145 135.47 52.7382 135.493 53.1701V56.8601C135.498 56.8994 135.494 56.9392 135.481 56.9766C135.468 57.014 135.447 57.048 135.419 57.0759C135.391 57.1039 135.358 57.1251 135.321 57.138C135.283 57.1508 135.243 57.155 135.204 57.1501H133.584C133.395 57.1501 133.305 57.0501 133.305 56.8601V52.1501C133.317 52.0699 133.31 51.9881 133.284 51.9111C133.259 51.8341 133.217 51.7642 133.159 51.7069C133.102 51.6496 133.033 51.6065 132.956 51.581C132.879 51.5555 132.798 51.5483 132.718 51.5601H132.39C132.171 51.5601 132.062 51.4801 132.062 51.3201V50.1401C132.057 50.0671 132.077 49.9945 132.119 49.9344C132.161 49.8744 132.221 49.8305 132.291 49.8101C132.635 49.6844 132.999 49.6233 133.365 49.6301C133.716 49.6 134.069 49.6704 134.382 49.8332C134.695 49.996 134.956 50.2445 135.135 50.5501C135.47 50.2303 135.868 49.9836 136.302 49.8253C136.737 49.667 137.199 49.6006 137.661 49.6301C138.109 49.6081 138.556 49.6926 138.965 49.8768C139.375 50.061 139.735 50.3396 140.017 50.6901C140.347 50.3304 140.751 50.0487 141.202 49.8654C141.652 49.6821 142.137 49.6017 142.623 49.6301C143.057 49.6097 143.491 49.68 143.896 49.8366C144.301 49.9933 144.67 50.2328 144.98 50.5401C145.282 50.8606 145.516 51.2395 145.668 51.6537C145.82 52.068 145.887 52.5091 145.865 52.9501V54.8801C145.865 55.2601 146.034 55.4501 146.352 55.4501C146.506 55.4573 146.66 55.4405 146.809 55.4001C147.015 55.4001 147.124 55.4801 147.137 55.6401L147.227 56.8901Z" fill="#080829"/>
<path d="M30.622 48.57C31.3556 45.6047 33.0548 42.9714 35.4487 41.0895C37.8428 39.2076 40.7941 38.1853 43.8327 38.1853C46.8715 38.1853 49.8227 39.2076 52.2167 41.0895C54.6108 42.9714 56.3099 45.6047 57.0435 48.57H55.8502C53.8372 48.5402 51.8655 49.1452 50.2119 50.3C50.1165 50.3695 50.0169 50.4329 49.9136 50.49H49.7744C49.6711 50.4329 49.5715 50.3695 49.476 50.3C47.8078 49.1719 45.8432 48.5694 43.8327 48.5694C41.8224 48.5694 39.8577 49.1719 38.1895 50.3C38.0941 50.3695 37.9944 50.4329 37.8911 50.49H37.7519C37.6487 50.4329 37.549 50.3695 37.4536 50.3C35.8001 49.1452 33.8283 48.5402 31.8153 48.57H30.622ZM53.7023 54.84C54.3149 54.3603 55.0741 54.1093 55.8502 54.13H57.4512V50.92H55.8502C54.4832 50.9034 53.1473 51.3313 52.0416 52.14C51.4194 52.6013 50.6668 52.8501 49.8937 52.8501C49.1207 52.8501 48.368 52.6013 47.7458 52.14C46.612 51.3464 45.2638 50.9209 43.8825 50.9209C42.5011 50.9209 41.1529 51.3464 40.0192 52.14C39.397 52.6013 38.6443 52.8501 37.8712 52.8501C37.0983 52.8501 36.3455 52.6013 35.7233 52.14C34.604 51.3209 33.249 50.8925 31.865 50.92H30.2143V54.13H31.8153C32.5914 54.1093 33.3506 54.3603 33.9632 54.84C35.0948 55.6341 36.4416 56.06 37.8215 56.06C39.2015 56.06 40.5482 55.6341 41.6798 54.84C42.2932 54.3617 43.0519 54.111 43.8278 54.13C44.6042 54.1076 45.3639 54.3588 45.9757 54.84C47.1094 55.6336 48.4577 56.0591 49.839 56.0591C51.2203 56.0591 52.5686 55.6336 53.7023 54.84ZM53.7023 60.58C54.3149 60.1003 55.0741 59.8493 55.8502 59.87H57.4512V56.66H55.8502C54.4832 56.6434 53.1473 57.0713 52.0416 57.88C51.4194 58.3413 50.6668 58.5901 49.8937 58.5901C49.1207 58.5901 48.368 58.3413 47.7458 57.88C46.612 57.0864 45.2638 56.6609 43.8825 56.6609C42.5011 56.6609 41.1529 57.0864 40.0192 57.88C39.397 58.3413 38.6443 58.5901 37.8712 58.5901C37.0983 58.5901 36.3455 58.3413 35.7233 57.88C34.604 57.0609 33.249 56.6325 31.865 56.66H30.2143V59.87H31.8153C32.5914 59.8493 33.3506 60.1003 33.9632 60.58C35.0948 61.3741 36.4416 61.8 37.8215 61.8C39.2015 61.8 40.5482 61.3741 41.6798 60.58C42.2932 60.1017 43.0519 59.851 43.8278 59.87C44.6042 59.8476 45.3639 60.0988 45.9757 60.58C47.1094 61.3736 48.4577 61.7991 49.839 61.7991C51.2203 61.7991 52.5686 61.3736 53.7023 60.58Z" fill="#080829"/>
</svg>
