<svg width="150" height="15" viewBox="0 0 150 15" fill="none" xmlns="http://www.w3.org/2000/svg">
<path d="M74.693 14.3741H69.573V0.686108H74.693V14.3741ZM70.073 13.8741H74.193V1.18611H70.073V13.8741ZM81.817 14.3741H76.8V0.686108H87.282C88.784 0.564508 90.279 0.986107 91.496 1.87411C92.02 2.35341 92.426 2.94731 92.683 3.60941C92.939 4.27151 93.039 4.98391 92.975 5.69111C93.05 6.91311 92.661 8.11831 91.886 9.06611C90.969 10.1181 89.443 10.6601 87.351 10.6791C86.824 10.6931 82.875 10.6791 81.82 10.6791L81.817 14.3741ZM77.297 13.8741H81.317V10.1741H81.568C81.619 10.1741 86.746 10.1901 87.339 10.1741C89.288 10.1571 90.689 9.67411 91.508 8.73111C92.198 7.87361 92.54 6.78831 92.468 5.69011C92.529 5.05651 92.444 4.41721 92.219 3.82191C91.993 3.22651 91.634 2.69111 91.168 2.25711C90.04 1.44721 88.659 1.06701 87.275 1.18511H77.3L77.297 13.8741ZM86.22 7.60411H81.283V3.87811H86.253C86.605 3.82941 86.964 3.87051 87.296 3.99761C87.629 4.12471 87.923 4.33371 88.153 4.60511C88.362 4.95211 88.46 5.35411 88.435 5.75811C88.454 6.13321 88.373 6.50661 88.2 6.84011C87.963 7.12601 87.656 7.34611 87.309 7.47921C86.963 7.61231 86.588 7.65391 86.22 7.60011V7.60411ZM81.783 7.10411H86.22C87.04 7.10411 87.548 6.93311 87.773 6.58111C87.897 6.32531 87.953 6.04191 87.936 5.75811C87.958 5.46021 87.893 5.16231 87.75 4.90011L87.744 4.89111C87.506 4.54111 87.033 4.37811 86.253 4.37811H81.783V7.10411ZM102.1 14.5761C97.61 14.5761 94.93 13.4611 93.909 11.1681C93.742 10.7252 93.628 10.2639 93.571 9.79411L93.527 9.50611H98.869L98.904 9.71611C98.945 9.92941 99.036 10.13 99.168 10.3021C99.379 10.5571 100.083 10.9851 102.419 10.9851C105.227 10.9851 105.227 10.4921 105.227 10.2271C105.227 9.78011 104.902 9.62711 102.612 9.38311L102.177 9.34211C101.315 9.26111 100.225 9.15811 99.727 9.11511C95.527 8.73511 93.652 7.43011 93.652 4.88511C93.652 2.21211 96.843 0.485107 101.782 0.485107C105.811 0.485107 108.407 1.54711 109.496 3.64411C109.754 4.13191 109.928 4.66011 110.009 5.20611L110.044 5.48711H104.696L104.674 5.26111C104.653 5.08451 104.578 4.91881 104.458 4.78711C104.258 4.51911 103.626 4.07611 101.664 4.07611C99.255 4.07611 98.923 4.38411 98.923 4.71611C98.923 5.15911 99.684 5.31611 102.123 5.57711C103.14 5.66011 104.775 5.82811 105.335 5.89611C108.856 6.27811 110.427 7.55111 110.427 10.0251C110.428 12.1001 108.983 14.5761 102.1 14.5761ZM94.111 10.0061C94.161 10.3359 94.247 10.6592 94.368 10.9701C95.298 13.0591 97.828 14.0761 102.1 14.0761C105.672 14.0761 109.931 13.3761 109.931 10.0251C109.931 7.83211 108.541 6.74611 105.282 6.39311C104.722 6.32511 103.097 6.15811 102.082 6.07411C99.482 5.79211 98.425 5.64211 98.425 4.71611C98.425 3.75811 99.564 3.57611 101.666 3.57611C103.327 3.57611 104.4 3.87611 104.855 4.48111C104.979 4.63021 105.073 4.80211 105.131 4.98711H109.465C109.378 4.60041 109.24 4.22681 109.055 3.87611C108.055 1.95711 105.612 0.985107 101.784 0.985107C97.149 0.985107 94.154 2.51611 94.154 4.88511C94.154 7.14511 95.835 8.26111 99.773 8.61711C100.273 8.66011 101.362 8.76311 102.226 8.84511L102.664 8.88611C104.791 9.11011 105.729 9.25011 105.729 10.2271C105.729 11.2791 104.516 11.4851 102.421 11.4851C100.483 11.4851 99.259 11.1941 98.786 10.6211C98.64 10.4384 98.53 10.2297 98.462 10.0061H94.111ZM119.927 14.5591C114.707 14.5591 111.827 12.4481 111.827 8.61411V0.686108H116.879V8.61411C116.879 9.92911 118.056 10.6831 120.107 10.6831C122.067 10.6831 123.284 9.89611 123.284 8.63111V0.686108H128.284V9.03411C128.289 12.5451 125.24 14.5591 119.924 14.5591H119.927ZM112.327 1.18611V8.61411C112.327 13.3521 117.085 14.0591 119.927 14.0591C122.865 14.0591 127.792 13.4061 127.792 9.03411V1.18611H123.792V8.63111C123.792 10.1811 122.348 11.1831 120.115 11.1831C117.781 11.1831 116.387 10.2231 116.387 8.61411V1.18611H112.327ZM149.472 14.3741H144.704V8.19411L142 14.3741H137.841L135.165 8.20611V14.3741H130.38V0.686108H136.674L139.944 8.23311L143.372 0.686108H149.478L149.472 14.3741ZM145.204 13.8741H148.972V1.18611H143.69L139.928 9.46511L136.342 1.18611H130.876V13.8741H134.661V5.80011L138.161 13.8771H141.661L145.198 5.81211L145.204 13.8741ZM5.054 0.936108H0.5V14.1241H13.084V10.6131H5.054V0.936108ZM22.276 0.636108C16.463 0.636108 13.406 3.39111 13.406 7.43611C13.406 12.0061 16.615 14.3241 22.276 14.3241C28.508 14.3241 31.129 11.6361 31.129 7.43611C31.129 3.17111 28.172 0.634106 22.276 0.634106V0.636108ZM22.259 4.06311C22.6547 4.06131 23.0502 4.08431 23.443 4.13211L18.352 9.22311C18.1111 8.67821 17.9936 8.08671 18.008 7.49111C18.008 5.42211 19.05 4.06111 22.259 4.06111V4.06311ZM22.276 10.9511C21.8947 10.9528 21.5137 10.9314 21.135 10.8871L26.235 5.78711C26.4669 6.32301 26.5779 6.90341 26.56 7.48711C26.56 9.50011 25.6 10.9491 22.276 10.9491V10.9511ZM40.152 9.15111H44.839C44.77 9.47641 44.6262 9.78111 44.419 10.0411C43.4473 10.8327 42.2072 11.2179 40.958 11.1161C40.3292 11.1834 39.6934 11.1147 39.0935 10.9147C38.4935 10.7148 37.9436 10.3882 37.481 9.95711C37.0071 9.26201 36.782 8.42721 36.842 7.58811C36.7653 6.70891 37.0101 5.83161 37.531 5.11911C38.186 4.37911 39.295 4.06011 40.925 4.06011C41.9621 3.97421 42.9979 4.24061 43.865 4.81611C44.1383 5.03321 44.3426 5.32501 44.453 5.65611H48.8C48.7684 5.11061 48.6372 4.57541 48.413 4.07711C47.372 1.96011 44.952 0.700108 40.837 0.700108C37.258 0.700108 34.856 1.79211 33.529 3.43911C32.6526 4.62851 32.2027 6.07851 32.252 7.55511C32.1953 9.06511 32.6335 10.5522 33.5 11.7901C34.811 13.4901 37.146 14.3261 39.952 14.3261C41.8175 14.4562 43.6703 13.9337 45.193 12.8481L45.311 14.1241H48.922V6.31211H40.152V9.15111ZM59.171 0.633106C53.359 0.633106 50.301 3.38811 50.301 7.43311C50.301 12.0031 53.509 14.3211 59.171 14.3211C65.404 14.3211 68.025 11.6331 68.025 7.43311C68.025 3.17111 65.068 0.634106 59.171 0.634106V0.633106ZM59.155 4.06011C59.5403 4.05901 59.9253 4.08101 60.308 4.12611L55.237 9.20011C55.0036 8.66131 54.89 8.07821 54.904 7.49111C54.9 5.42211 55.946 4.06111 59.155 4.06111V4.06011ZM59.171 10.9481C58.7796 10.9498 58.3885 10.9271 58 10.8801L63.117 5.76211C63.3577 6.30511 63.4729 6.89541 63.454 7.48911C63.456 9.5001 62.5 10.9491 59.171 10.9491V10.9481Z" fill="#080829"/>
</svg>
