<svg width="178" height="100" viewBox="0 0 178 100" fill="none" xmlns="http://www.w3.org/2000/svg">
<path d="M10.9216 30.0471V65.5001H168.614V30.0471H10.9216ZM166.625 63.5001H86.0774V32.0471H166.625V63.5001Z" fill="#080829"/>
<path d="M19.3036 53.713V41.926H23.3489V50.574H30.4848V53.713H19.3036Z" fill="white"/>
<path d="M46.4331 47.737C46.4331 51.49 44.1042 53.893 38.5643 53.893C33.5326 53.893 30.6806 51.821 30.6806 47.737C30.6806 44.118 33.3994 41.656 38.5643 41.656C43.8099 41.656 46.4331 43.923 46.4331 47.737ZM42.372 47.782C42.372 46.082 41.6699 44.719 38.5494 44.719C35.6974 44.719 34.7707 45.935 34.7707 47.782C34.7707 49.659 35.6209 50.875 38.5624 50.875C41.5227 50.875 42.372 49.584 42.372 47.782Z" fill="white"/>
<path d="M58.9467 53.7131L58.8423 52.5711C57.4891 53.5423 55.842 54.0097 54.1835 53.8931C51.6905 53.8931 49.6142 53.1421 48.4497 51.6261C47.6817 50.5193 47.2939 49.1907 47.3449 47.8421C47.3014 46.5218 47.7026 45.2253 48.4835 44.1631C49.6619 42.6921 51.7979 41.7161 54.978 41.7161C58.6365 41.7161 60.7864 42.8421 61.7112 44.7341C61.9098 45.1797 62.0263 45.6577 62.0553 46.1451H58.185C58.0876 45.8489 57.9061 45.5879 57.6629 45.3941C56.8921 44.8801 55.9714 44.6423 55.0496 44.7191C54.509 44.6532 53.9605 44.7034 53.4407 44.8665C52.9207 45.0296 52.4412 45.3018 52.0336 45.6651C51.5709 46.3021 51.3536 47.0863 51.422 47.8721C51.3684 48.6218 51.5682 49.3678 51.9888 49.9891C52.4001 50.3744 52.889 50.6662 53.4222 50.845C53.9554 51.0237 54.5206 51.0852 55.0795 51.0251C56.1896 51.1159 57.2917 50.7716 58.1552 50.0641C58.3407 49.8309 58.4685 49.5567 58.5281 49.2641H54.3635V46.7311H62.1567V53.7131H58.9467Z" fill="white"/>
<path d="M79.0439 47.737C79.0439 51.49 76.714 53.893 71.1751 53.893C66.1434 53.893 63.2914 51.821 63.2914 47.737C63.2914 44.118 66.0102 41.656 71.1751 41.656C76.4167 41.656 79.0439 43.923 79.0439 47.737ZM74.9827 47.782C74.9827 46.082 74.2807 44.719 71.1602 44.719C68.3082 44.719 67.3815 45.935 67.3815 47.782C67.3815 49.659 68.2327 50.875 71.1731 50.875C74.1325 50.875 74.9827 49.584 74.9827 47.782Z" fill="white"/>
<path d="M92.8911 53.6681V41.8811H95.7749V53.6681H92.8911Z" fill="#080829"/>
<path d="M110.584 48.7431C109.853 49.7041 108.595 50.1431 106.822 50.1541C106.448 50.1541 101.491 50.1391 101.491 50.1391V53.6681H98.6687V41.8811H106.823C107.476 41.8116 108.137 41.8813 108.762 42.0856C109.387 42.29 109.962 42.6244 110.45 43.0671C111.095 43.9113 111.408 44.9639 111.332 46.0251C111.397 46.9903 111.134 47.9492 110.584 48.7431ZM108.27 44.9001C107.971 44.4501 107.328 44.2001 106.239 44.2001H101.476V47.7881H106.208C107.373 47.7881 107.986 47.5481 108.27 47.0821C108.439 46.7538 108.51 46.3841 108.479 46.0161C108.503 45.6323 108.432 45.2484 108.27 44.9001Z" fill="#080829"/>
<path d="M119.648 53.8479C114.332 53.8479 112.705 51.8479 112.705 49.8689H115.721C115.721 50.8449 117.049 51.5809 119.782 51.5809C122.499 51.5809 123.216 51.0999 123.216 50.3189C123.216 49.4479 122.679 49.1779 120.155 48.8929C119.658 48.8479 118.304 48.6829 117.796 48.6079C114.216 48.2019 112.838 47.1359 112.838 45.2289C112.838 43.2169 114.855 41.7009 119.229 41.7009C123.978 41.7009 125.799 43.5779 125.799 45.5299H122.816C122.816 44.5389 121.696 43.9679 119.053 43.9679C116.335 43.9679 115.754 44.3429 115.754 45.0789C115.754 45.8449 116.35 46.0849 119.234 46.4299C119.891 46.5209 121.354 46.6859 121.757 46.7299C124.804 47.0449 126.177 48.1559 126.177 50.1229C126.172 52.4659 124.082 53.8479 119.648 53.8479Z" fill="#080829"/>
<path d="M134.669 53.8331C130.773 53.8331 128.235 52.2861 128.235 49.0331V41.8811H131.086V49.0731C131.086 50.5601 132.296 51.5501 134.789 51.5501C137.043 51.5501 138.388 50.6201 138.388 49.0731V41.8811H141.21V49.3001C141.21 52.2571 138.85 53.8331 134.669 53.8331Z" fill="#080829"/>
<path d="M156.663 53.6681V45.8001L153.004 53.6681H150.228L146.674 45.8001V53.6681H143.989V41.8811H147.627L151.658 50.8601L155.779 41.8811H159.359V53.6681H156.663Z" fill="#080829"/>
</svg>
