<svg width="114" height="26" viewBox="0 0 114 26" fill="none" xmlns="http://www.w3.org/2000/svg">
<path d="M0.0549011 25.8251H25.7049V0.175049H0.0549011V25.8251ZM20.7679 10.5321H15.3479V5.11205H20.7679V10.5321ZM4.9909 5.11205H10.4139V15.468H20.7679V20.8881H4.9909V5.11205ZM42.4079 0.175049C39.8714 0.175049 37.3918 0.927249 35.2827 2.33645C33.1737 3.74575 31.5299 5.74865 30.5592 8.09215C29.5885 10.4356 29.3345 13.0143 29.8294 15.5022C30.3242 17.99 31.5457 20.2751 33.3393 22.0687C35.1329 23.8623 37.4181 25.0838 39.9059 25.5787C42.3937 26.0735 44.9724 25.8195 47.3158 24.8489C49.6593 23.8782 51.6623 22.2343 53.0715 20.1252C54.4808 18.0161 55.2329 15.5366 55.2329 13C55.229 9.59985 53.8765 6.34015 51.4722 3.93585C49.0679 1.53155 45.8081 0.179049 42.4079 0.175049ZM42.4079 20.8881C40.8478 20.8881 39.3228 20.4255 38.0256 19.5587C36.7284 18.692 35.7174 17.4601 35.1204 16.0187C34.5233 14.5773 34.3671 12.9914 34.6715 11.4612C34.9759 9.93105 35.7271 8.52555 36.8303 7.42245C37.9334 6.31925 39.3389 5.56795 40.8691 5.26365C42.3992 4.95925 43.9852 5.11545 45.4265 5.71255C46.8679 6.30955 48.0998 7.32055 48.9666 8.61775C49.8333 9.91495 50.2959 11.4399 50.2959 13C50.2928 15.0911 49.4607 17.0956 47.9821 18.5742C46.5035 20.0528 44.499 20.8848 42.4079 20.8881ZM101.127 0.175049C98.59 0.174849 96.111 0.926849 94.001 2.33595C91.892 3.74505 90.248 5.74805 89.277 8.09145C88.307 10.4349 88.052 13.0136 88.547 15.5014C89.042 17.9893 90.263 20.2746 92.057 22.0683C93.85 23.862 96.136 25.0836 98.624 25.5785C101.111 26.0735 103.69 25.8195 106.034 24.8489C108.377 23.8783 110.38 22.2345 111.789 20.1254C113.199 18.0163 113.951 15.5366 113.951 13C113.947 9.60005 112.595 6.34045 110.191 3.93615C107.786 1.53185 104.527 0.179349 101.127 0.175049ZM101.127 20.8881C99.567 20.8883 98.042 20.4258 96.744 19.5592C95.447 18.6926 94.436 17.4606 93.839 16.0193C93.241 14.578 93.085 12.9919 93.389 11.4618C93.694 9.93165 94.445 8.52605 95.548 7.42275C96.651 6.31955 98.057 5.56815 99.587 5.26375C101.117 4.95925 102.703 5.11545 104.144 5.71245C105.586 6.30945 106.818 7.32045 107.684 8.61765C108.551 9.91485 109.014 11.4399 109.014 13C109.011 15.091 108.179 17.0952 106.7 18.5738C105.222 20.0524 103.218 20.8846 101.127 20.8881ZM71.767 0.175049C69.23 0.175049 66.7508 0.927249 64.6417 2.33645C62.5327 3.74575 60.8889 5.74865 59.9182 8.09215C58.9475 10.4356 58.6935 13.0143 59.1884 15.5022C59.6832 17.99 60.9047 20.2751 62.6983 22.0687C64.4919 23.8623 66.7771 25.0838 69.265 25.5787C71.753 26.0735 74.331 25.8195 76.675 24.8489C79.018 23.8782 81.021 22.2343 82.431 20.1252C83.84 18.0161 84.592 15.5366 84.592 13C84.588 9.59985 83.235 6.34015 80.831 3.93585C78.427 1.53155 75.167 0.179049 71.767 0.175049ZM71.767 20.8881C70.313 20.8888 68.888 20.4879 67.6479 19.7295C66.4078 18.9713 65.4014 17.8852 64.7397 16.591C64.078 15.2968 63.7868 13.8448 63.8982 12.3956C64.0095 10.9463 64.5192 9.55605 65.3709 8.37825C66.2225 7.20035 67.3831 6.28065 68.724 5.72075C70.066 5.16085 71.536 4.98245 72.972 5.20535C74.409 5.42815 75.755 6.04345 76.864 6.98345C77.973 7.92345 78.8 9.15155 79.255 10.5321H71.767V15.468H79.255C78.734 17.0433 77.73 18.4148 76.386 19.3876C75.042 20.3605 73.426 20.8855 71.767 20.8881Z" fill="#080829"/>
</svg>
