<svg width="178" height="100" viewBox="0 0 178 100" fill="none" xmlns="http://www.w3.org/2000/svg">
<path d="M43.2491 40.7297V36.9231H31.3141V63.0769H43.2491V59.2703C40.8043 59.2703 38.4594 58.2935 36.7307 56.555C35.0019 54.8165 34.0306 52.4586 34.0306 50C34.0306 47.5414 35.0019 45.1834 36.7307 43.4449C38.4594 41.7064 40.8043 40.7297 43.2491 40.7297Z" fill="#080829"/>
<path d="M43.2494 40.7297V59.2703C45.6944 59.2703 48.0391 58.2935 49.7679 56.555C51.4968 54.8165 52.4679 52.4586 52.4679 50C52.4679 47.5414 51.4968 45.1834 49.7679 43.4449C48.0391 41.7064 45.6944 40.7297 43.2494 40.7297Z" fill="#080829"/>
<path d="M59.1654 43.0586H61.8374V56.0011H59.1654V43.0586Z" fill="#080829"/>
<path d="M63.3341 51.5674C63.3341 50.6363 63.6091 49.7261 64.1241 48.9522C64.639 48.1783 65.3709 47.5756 66.2269 47.2205C67.0829 46.8655 68.0245 46.7739 68.9323 46.9575C69.8401 47.1412 70.6732 47.5917 71.326 48.252C71.9788 48.9124 72.4222 49.7527 72.5996 50.6666C72.777 51.5806 72.6806 52.5269 72.3225 53.3857C71.9644 54.2443 71.361 54.9769 70.5886 55.4903C69.8161 56.0038 68.9094 56.275 67.9834 56.2697C67.3692 56.2746 66.7604 56.1561 66.1923 55.9211C65.6243 55.6861 65.1086 55.3395 64.6756 54.9016C64.2426 54.4636 63.9009 53.943 63.6705 53.3705C63.4402 52.798 63.3258 52.185 63.3341 51.5674ZM70.032 51.5674C70.0214 51.166 69.8935 50.7765 69.664 50.4479C69.4345 50.1192 69.1139 49.8658 68.742 49.7195C68.3701 49.5731 67.9636 49.5402 67.5733 49.6251C67.183 49.7098 66.8262 49.9084 66.5475 50.196C66.2687 50.4837 66.0806 50.8475 66.0065 51.2421C65.9323 51.6367 65.9756 52.0446 66.1307 52.4146C66.2858 52.7846 66.5461 53.1005 66.8788 53.3225C67.2114 53.5446 67.6018 53.6631 68.0012 53.6633C68.2732 53.6687 68.5432 53.6175 68.7945 53.5131C69.0459 53.4088 69.2731 53.2534 69.462 53.0567C69.6509 52.86 69.7974 52.6261 69.8925 52.37C69.9875 52.1137 70.0289 51.8405 70.0142 51.5674H70.032Z" fill="#080829"/>
<path d="M83.2049 47.134V55.5623C83.2049 58.536 80.8891 59.7989 78.5466 59.7989C77.7203 59.867 76.8915 59.702 76.1536 59.3222C75.4156 58.9424 74.7977 58.363 74.3693 57.6493L76.6227 56.3416C76.8053 56.7118 77.0958 57.0173 77.4555 57.2173C77.815 57.4173 78.2267 57.5024 78.6356 57.4612C78.8962 57.4934 79.1606 57.4674 79.4099 57.385C79.6592 57.3025 79.8873 57.1658 80.0779 56.9843C80.2687 56.8028 80.417 56.5813 80.5126 56.3355C80.6081 56.0897 80.6485 55.8257 80.6308 55.5623V54.7473C80.3199 55.1264 79.9253 55.4273 79.4785 55.6264C79.0317 55.8254 78.5449 55.9169 78.0567 55.8937C76.8756 55.8937 75.7429 55.4219 74.9078 54.582C74.0726 53.7422 73.6033 52.6031 73.6033 51.4153C73.6033 50.2276 74.0726 49.0885 74.9078 48.2487C75.7429 47.4088 76.8756 46.9369 78.0567 46.9369C78.5449 46.9137 79.0317 47.0053 79.4785 47.2043C79.9253 47.4033 80.3199 47.7043 80.6308 48.0834V47.1877L83.2049 47.134ZM80.6308 51.3885C80.6485 50.96 80.5384 50.5359 80.3146 50.1708C80.0908 49.8057 79.7635 49.5163 79.3748 49.3398C78.9861 49.1632 78.5538 49.1077 78.1335 49.1803C77.7131 49.2528 77.3239 49.4501 77.0159 49.7469C76.7081 50.0436 76.4955 50.4262 76.4055 50.8455C76.3156 51.2648 76.3524 51.7014 76.5112 52.0995C76.6701 52.4975 76.9436 52.8387 77.2968 53.0791C77.6501 53.3195 78.0667 53.4482 78.4931 53.4485C78.7715 53.4687 79.0509 53.4299 79.3133 53.3348C79.5758 53.2396 79.8155 53.0901 80.017 52.8959C80.2184 52.7018 80.3771 52.4673 80.4829 52.2076C80.5886 51.948 80.639 51.6689 80.6308 51.3885Z" fill="#080829"/>
<path d="M84.7102 51.5675C84.7102 50.6371 84.9848 49.7276 85.4989 48.9541C86.0131 48.1806 86.7439 47.5779 87.5989 47.2223C88.4538 46.8667 89.3945 46.774 90.3018 46.9562C91.2091 47.1384 92.0422 47.5871 92.696 48.2456C93.3495 48.9042 93.7941 49.7429 93.9735 50.6556C94.153 51.5684 94.0591 52.5142 93.7038 53.3732C93.3485 54.2324 92.7478 54.9661 91.9777 55.4817C91.2075 55.9974 90.3026 56.2716 89.3774 56.2699C88.7621 56.2759 88.1517 56.1583 87.5822 55.9239C87.0127 55.6896 86.4954 55.3434 86.0607 54.9054C85.626 54.4674 85.2827 53.9466 85.0507 53.3734C84.8189 52.8003 84.7031 52.1863 84.7102 51.5675ZM91.4081 51.5675C91.3975 51.1657 91.2694 50.7759 91.0396 50.447C90.8098 50.1182 90.4885 49.8649 90.116 49.7188C89.7437 49.5727 89.3367 49.5403 88.9462 49.6259C88.5556 49.7113 88.1988 49.9109 87.9205 50.1994C87.6421 50.4879 87.4547 50.8526 87.3816 51.2478C87.3085 51.643 87.353 52.051 87.5094 52.4209C87.6659 52.7908 87.9275 53.106 88.2615 53.327C88.5953 53.548 88.9865 53.665 89.3862 53.6634C89.6582 53.6688 89.9282 53.6177 90.1796 53.5132C90.431 53.4089 90.6581 53.2535 90.847 53.0568C91.036 52.8601 91.1825 52.6262 91.2775 52.3701C91.3726 52.1138 91.414 51.8406 91.3992 51.5675H91.4081Z" fill="#080829"/>
<path d="M95.2826 44.7605C95.2826 44.4453 95.3756 44.137 95.5498 43.8748C95.724 43.6126 95.9716 43.4083 96.2612 43.2876C96.551 43.1669 96.8698 43.1354 97.1772 43.1969C97.4847 43.2584 97.7672 43.4102 97.9891 43.6332C98.2107 43.8562 98.3617 44.1403 98.4229 44.4495C98.4841 44.7588 98.4527 45.0793 98.3327 45.3707C98.2127 45.662 98.0095 45.911 97.7487 46.0862C97.4881 46.2613 97.1815 46.3549 96.868 46.3549C96.4489 46.3502 96.0484 46.1807 95.7521 45.8827C95.4557 45.5848 95.2872 45.182 95.2826 44.7605ZM95.5408 47.1341H98.2129V56.0013H95.5408V47.1341Z" fill="#080829"/>
<path d="M109.649 51.5676C109.679 52.1573 109.592 52.7472 109.395 53.3033C109.198 53.8593 108.892 54.3706 108.497 54.8076C108.103 55.2446 107.625 55.5988 107.094 55.8498C106.562 56.1007 105.988 56.2435 105.401 56.2699C104.903 56.3032 104.403 56.2231 103.941 56.0354C103.479 55.8477 103.064 55.5574 102.729 55.1862V59.566H100.057V47.134H102.729V47.967C103.065 47.5968 103.48 47.3078 103.942 47.1217C104.404 46.9355 104.904 46.8571 105.401 46.8922C105.985 46.9186 106.558 47.0606 107.088 47.3098C107.617 47.5591 108.094 47.9109 108.488 48.345C108.882 48.7792 109.188 49.2872 109.387 49.8402C109.586 50.3931 109.676 50.98 109.649 51.5676ZM106.977 51.5676C106.967 51.1516 106.834 50.748 106.596 50.4073C106.358 50.0667 106.026 49.8041 105.642 49.6526C105.256 49.5011 104.834 49.4674 104.43 49.5556C104.026 49.6439 103.656 49.8502 103.368 50.1488C103.08 50.4473 102.885 50.8247 102.809 51.2339C102.734 51.6429 102.78 52.0654 102.942 52.4484C103.104 52.8313 103.374 53.1577 103.719 53.3866C104.065 53.6156 104.47 53.7368 104.884 53.7352C105.167 53.7472 105.451 53.699 105.714 53.5935C105.978 53.4879 106.216 53.3276 106.413 53.123C106.611 52.9183 106.763 52.6739 106.861 52.4059C106.958 52.1378 106.998 51.8522 106.977 51.5676Z" fill="#080829"/>
<path d="M117.781 53.3409C117.781 55.3831 115.999 56.2519 114.112 56.2519C113.341 56.3216 112.569 56.1574 111.891 55.7806C111.215 55.4038 110.667 54.8316 110.317 54.1381L112.615 52.8304C112.706 53.15 112.904 53.4285 113.174 53.6192C113.445 53.81 113.773 53.9015 114.103 53.8784C114.735 53.8784 115.056 53.6813 115.056 53.323C115.056 52.3467 110.718 52.8662 110.718 49.7941C110.718 47.8594 112.339 46.8921 114.174 46.8921C114.872 46.8606 115.564 47.0198 116.179 47.3525C116.794 47.6853 117.307 48.1792 117.665 48.7819L115.368 50.0001C115.265 49.769 115.1 49.5725 114.89 49.4342C114.68 49.2959 114.434 49.2218 114.183 49.2208C113.72 49.2208 113.444 49.4 113.444 49.7134C113.444 50.7345 117.781 50.0628 117.781 53.3409Z" fill="#080829"/>
<path d="M127.463 47.1338V56.0011H124.791V55.1681C124.487 55.5368 124.102 55.8286 123.666 56.02C123.23 56.2114 122.754 56.2969 122.279 56.2698C120.498 56.2698 118.975 54.9889 118.975 52.5975V47.1338H121.647V52.1944C121.626 52.406 121.651 52.6196 121.72 52.8206C121.789 53.0215 121.9 53.2049 122.046 53.3583C122.194 53.5115 122.372 53.631 122.568 53.7085C122.765 53.7859 122.976 53.8194 123.188 53.8067C124.15 53.8067 124.827 53.2334 124.827 52.0153V47.1338H127.463Z" fill="#080829"/>
<path d="M142.604 50.5552V56.001H139.932V50.7881C139.932 49.8924 139.513 49.3371 138.667 49.3371C137.822 49.3371 137.287 49.9551 137.287 51.0031V56.001H134.615V50.7881C134.615 49.8924 134.196 49.3371 133.35 49.3371C132.504 49.3371 131.97 49.9551 131.97 51.0031V56.001H129.298V47.1338H131.97V47.9488C132.247 47.5888 132.607 47.3036 133.022 47.1191C133.434 46.9346 133.888 46.8565 134.338 46.8919C134.791 46.8682 135.241 46.9631 135.645 47.1673C136.05 47.3714 136.395 47.6778 136.645 48.0563C136.94 47.6608 137.327 47.3466 137.775 47.143C138.221 46.9393 138.713 46.853 139.202 46.8919C141.286 46.8919 142.604 48.3429 142.604 50.5552Z" fill="#080829"/>
<path d="M144.848 47.0803C145.93 47.0803 146.808 46.1981 146.808 45.1098C146.808 44.0216 145.93 43.1394 144.848 43.1394C143.766 43.1394 142.889 44.0216 142.889 45.1098C142.889 46.1981 143.766 47.0803 144.848 47.0803Z" fill="#080829"/>
</svg>
