<svg width="82" height="61" viewBox="0 0 82 61" fill="none" xmlns="http://www.w3.org/2000/svg">
<path d="M45.6875 53.875V19.5C45.6931 14.5289 47.6704 9.763 51.1855 6.248C54.7005 2.7329 59.4664 0.7556 64.4375 0.75C65.2663 0.75 66.0612 1.0792 66.6472 1.6653C67.2333 2.2513 67.5625 3.0462 67.5625 3.875C67.5625 4.7038 67.2333 5.4987 66.6472 6.0847C66.0612 6.6708 65.2663 7 64.4375 7C61.1234 7.0037 57.9462 8.3219 55.6028 10.6653C53.2594 13.0087 51.9412 16.1859 51.9375 19.5V22.625H75.375C77.032 22.6269 78.6206 23.286 79.7923 24.4577C80.964 25.6294 81.6231 27.218 81.625 28.875V53.875C81.6231 55.532 80.964 57.1206 79.7923 58.2923C78.6206 59.464 77.032 60.1231 75.375 60.125H51.9375C50.2805 60.1231 48.6919 59.464 47.5202 58.2923C46.3485 57.1206 45.6894 55.532 45.6875 53.875ZM6.625 60.125H30.0625C31.7195 60.1231 33.3081 59.464 34.4798 58.2923C35.6515 57.1206 36.3106 55.532 36.3125 53.875V28.875C36.3106 27.218 35.6515 25.6294 34.4798 24.4577C33.3081 23.286 31.7195 22.6269 30.0625 22.625H6.625V19.5C6.6287 16.1859 7.9469 13.0087 10.2903 10.6653C12.6337 8.3219 15.8109 7.0037 19.125 7C19.9538 7 20.7487 6.6708 21.3347 6.0847C21.9208 5.4987 22.25 4.7038 22.25 3.875C22.25 3.0462 21.9208 2.2513 21.3347 1.6653C20.7487 1.0792 19.9538 0.75 19.125 0.75C14.1539 0.7556 9.388 2.7329 5.873 6.248C2.3579 9.763 0.38062 14.5289 0.375 19.5V53.875C0.37689 55.532 1.036 57.1206 2.2077 58.2923C3.3794 59.464 4.968 60.1231 6.625 60.125Z" fill="#3F53D8"/>
</svg>
