<svg width="82" height="61" viewBox="0 0 82 61" fill="none" xmlns="http://www.w3.org/2000/svg">
<path d="M36.3125 7.125V41.5C36.3069 46.4711 34.3296 51.237 30.8145 54.752C27.2995 58.2671 22.5336 60.2444 17.5625 60.25C16.7337 60.25 15.9388 59.9208 15.3528 59.3347C14.7667 58.7487 14.4375 57.9538 14.4375 57.125C14.4375 56.2962 14.7667 55.5013 15.3528 54.9153C15.9388 54.3292 16.7337 54 17.5625 54C20.8766 53.9963 24.0538 52.6781 26.3972 50.3347C28.7406 47.9913 30.0588 44.8141 30.0625 41.5V38.375H6.625C4.968 38.3731 3.3794 37.714 2.2077 36.5423C1.036 35.3706 0.3769 33.782 0.375 32.125V7.125C0.3769 5.468 1.036 3.8794 2.2077 2.7077C3.3794 1.536 4.968 0.8769 6.625 0.875H30.0625C31.7195 0.8769 33.3081 1.536 34.4798 2.7077C35.6515 3.8794 36.3106 5.468 36.3125 7.125ZM75.375 0.875H51.9375C50.2805 0.8769 48.6919 1.536 47.5202 2.7077C46.3485 3.8794 45.6894 5.468 45.6875 7.125V32.125C45.6894 33.782 46.3485 35.3706 47.5202 36.5423C48.6919 37.714 50.2805 38.3731 51.9375 38.375H75.375V41.5C75.3713 44.8141 74.0531 47.9913 71.7097 50.3347C69.3663 52.6781 66.1891 53.9963 62.875 54C62.0462 54 61.2513 54.3292 60.6653 54.9153C60.0792 55.5013 59.75 56.2962 59.75 57.125C59.75 57.9538 60.0792 58.7487 60.6653 59.3347C61.2513 59.9208 62.0462 60.25 62.875 60.25C67.8461 60.2444 72.612 58.2671 76.127 54.752C79.6421 51.237 81.6194 46.4711 81.625 41.5V7.125C81.6231 5.468 80.964 3.8794 79.7923 2.7077C78.6206 1.536 77.032 0.8769 75.375 0.875Z" fill="#3F53D8"/>
</svg>
