<svg width="27" height="26" viewBox="0 0 27 26" fill="none" xmlns="http://www.w3.org/2000/svg">
<path d="M25.9757 9.80055C25.8595 9.42306 25.6359 9.09058 25.3342 8.84648C25.0325 8.60238 24.6667 8.458 24.2845 8.43218L17.3718 7.93185L14.8076 1.25364C14.6688 0.884432 14.4254 0.567196 14.1093 0.343496C13.7932 0.119796 13.4192 6.74844e-05 13.0363 0H13.0344C12.652 0.000705435 12.2787 0.120739 11.9633 0.344405C11.6479 0.568071 11.4052 0.88496 11.2667 1.25364L8.66426 7.97041L1.78985 8.43218C1.40762 8.458 1.04177 8.60238 0.740062 8.84648C0.438353 9.09058 0.214786 9.42306 0.0985288 9.80055C-0.0241138 10.1834 -0.0324569 10.5956 0.0745864 10.9834C0.18163 11.3712 0.399099 11.7167 0.698676 11.9749L5.98724 16.5982L4.41412 22.998C4.3057 23.4291 4.32564 23.884 4.47133 24.3032C4.61703 24.7224 4.8817 25.0863 5.23069 25.3473C5.56763 25.6009 5.97056 25.7436 6.38704 25.757C6.80352 25.7705 7.21426 25.6539 7.5658 25.4226L13.0217 21.8479C13.0289 21.8422 13.0363 21.8385 13.0526 21.8479L18.9231 25.6943C19.2418 25.9049 19.6145 26.0112 19.9926 25.9991C20.3706 25.987 20.7363 25.8572 21.0418 25.6266C21.3581 25.3902 21.5979 25.0606 21.73 24.6808C21.862 24.3011 21.8801 23.889 21.782 23.4984L20.1107 16.507L25.3756 11.9749C25.6752 11.7167 25.8926 11.3712 25.9997 10.9834C26.1068 10.5956 26.0984 10.1834 25.9757 9.80055Z" fill="#3F53D8"/>
</svg>
