<svg width="18" height="18" viewBox="0 0 18 18" fill="none" xmlns="http://www.w3.org/2000/svg">
<path d="M5.94718 8.7264C6.66032 10.1843 7.84213 11.3608 9.3033 12.0673C9.4102 12.1179 9.5285 12.1399 9.6465 12.1309C9.7644 12.122 9.878 12.0825 9.9761 12.0164L12.1276 10.5817C12.2228 10.5182 12.3322 10.4795 12.4461 10.4691C12.56 10.4586 12.6747 10.4767 12.7798 10.5218L16.8049 12.2468C16.9416 12.3049 17.0558 12.4058 17.1302 12.5344C17.2045 12.663 17.2351 12.8123 17.2173 12.9598C17.09 13.9553 16.6043 14.8703 15.851 15.5335C15.0978 16.1966 14.1286 16.5625 13.125 16.5626C10.0253 16.5626 7.05252 15.3312 4.86069 13.1394C2.66886 10.9475 1.4375 7.97477 1.4375 4.87505C1.43755 3.87145 1.80342 2.90228 2.46659 2.14901C3.12975 1.39574 4.04475 0.910017 5.04026 0.782797C5.18774 0.764947 5.33703 0.795507 5.46562 0.869888C5.59422 0.944257 5.69517 1.05841 5.75325 1.19514L7.47978 5.22371C7.52444 5.32791 7.54264 5.44154 7.53275 5.55448C7.52287 5.66741 7.4852 5.77615 7.42312 5.87101L5.99343 8.0555C5.92836 8.1538 5.88989 8.2673 5.88179 8.3848C5.87368 8.5024 5.89621 8.6201 5.94718 8.7264Z" stroke="#080829" stroke-width="1.2" stroke-linecap="round" stroke-linejoin="round"/>
</svg>
