<svg width="20" height="20" viewBox="0 0 20 20" fill="none" xmlns="http://www.w3.org/2000/svg">
<path d="M9.73592 0.000976562C4.48439 0.000976562 0.212067 4.48691 0.212067 10.0009C0.212067 15.5148 4.48439 20.0008 9.73592 20.0008C14.9873 20.0008 19.2597 15.5148 19.2597 10.0009C19.2597 4.48691 14.9873 0.000976562 9.73592 0.000976562ZM15.9422 4.71716C17.0113 6.09904 17.6695 7.84326 17.7243 9.74461C15.7438 9.3141 13.9504 9.36462 12.3673 9.69056C12.0806 8.98666 11.7838 8.31606 11.4843 7.68227C13.2085 6.90238 14.7094 5.90626 15.9422 4.71716ZM14.8693 3.57226C13.6457 4.74499 12.2276 5.6133 10.7757 6.25436C9.71001 4.20808 8.69035 2.66713 8.06921 1.79143C8.60706 1.67112 9.16438 1.60658 9.73592 1.60658C11.6888 1.60658 13.4794 2.34665 14.8693 3.57226ZM6.52478 2.31582C6.99381 2.954 8.11101 4.55189 9.31108 6.82531C6.29499 7.85707 3.36842 8.0309 1.96212 8.04706C2.54829 5.47596 4.26307 3.36182 6.52478 2.31582ZM1.74957 9.65673C1.76466 9.65673 1.77923 9.65684 1.79463 9.65684C2.76635 9.65684 4.54668 9.58823 6.64262 9.18693C7.83841 8.95797 8.97233 8.64981 10.0363 8.26789C10.3133 8.84751 10.5886 9.45892 10.8556 10.0998C9.36582 10.6034 8.10948 11.3281 7.11432 12.0476C5.44551 13.2542 4.27642 14.593 3.63806 15.4207C2.45614 13.9572 1.74121 12.0656 1.74121 10.0009C1.74121 9.88548 1.74508 9.77105 1.74957 9.65673ZM4.73997 16.5473C5.28954 15.8207 6.40816 14.4983 8.0263 13.3378C9.12596 12.5492 10.2636 11.9632 11.4349 11.5786C12.1144 13.4281 12.6946 15.4716 13.0405 17.6414C12.0325 18.1239 10.9141 18.3952 9.73592 18.3952C7.84667 18.3952 6.10967 17.7021 4.73997 16.5473ZM14.4473 16.7768C14.0908 14.7841 13.5592 12.9103 12.9445 11.1979C14.4563 10.9301 16.0188 10.9853 17.6236 11.3638C17.2775 13.5785 16.1038 15.5035 14.4473 16.7768Z" fill="#080829"/>
</svg>
