<svg width="20" height="20" viewBox="0 0 20 20" fill="none" xmlns="http://www.w3.org/2000/svg">
<path d="M19.2411 5.88005C19.1964 4.81738 19.0328 4.0868 18.7983 3.45374C18.5565 2.78176 18.1844 2.18014 17.6969 1.68002C17.2205 1.1721 16.6438 0.777435 16.0112 0.527447C15.4049 0.281274 14.7127 0.109427 13.7006 0.0625732C12.681 0.0117516 12.3572 0 9.77125 0C7.18513 0 6.86144 0.0117516 5.84559 0.0586052C4.83351 0.105459 4.13772 0.277459 3.53496 0.523479C2.89484 0.777435 2.32187 1.16814 1.84556 1.68002C1.36183 2.18014 0.986104 2.78573 0.747874 3.44992C0.513424 4.0868 0.349761 4.81341 0.305139 5.87609C0.256737 6.9467 0.245544 7.28658 0.245544 10.002C0.245544 12.7173 0.256737 13.0572 0.30136 14.1239C0.345982 15.1865 0.509791 15.9171 0.744241 16.5502C0.986104 17.2221 1.36183 17.8238 1.84556 18.3239C2.32187 18.8318 2.89862 19.2265 3.53118 19.4765C4.13772 19.7226 4.82973 19.8945 5.84195 19.9413C6.85766 19.9883 7.18151 19.9999 9.76753 19.9999C12.3536 19.9999 12.6773 19.9883 13.6932 19.9413C14.7052 19.8945 15.4011 19.7226 16.0038 19.4765C17.2839 18.9568 18.296 17.8941 18.7909 16.5502C19.0252 15.9133 19.189 15.1865 19.2336 14.1239C19.2783 13.0572 19.2894 12.7173 19.2894 10.002C19.2894 7.28658 19.2856 6.9467 19.2411 5.88005ZM17.5257 14.0457C17.4848 15.0225 17.3285 15.5499 17.1983 15.9015C16.8782 16.7728 16.2196 17.4643 15.3898 17.8004C15.055 17.9372 14.549 18.1012 13.6224 18.1441C12.6177 18.1911 12.3164 18.2027 9.77496 18.2027C7.23353 18.2027 6.92845 18.1911 5.92742 18.1441C4.99718 18.1012 4.49485 17.9372 4.15996 17.8004C3.74703 17.6402 3.37115 17.3862 3.06606 17.0541C2.74978 16.7298 2.50791 16.3391 2.35529 15.9055C2.22507 15.5539 2.06882 15.0225 2.02797 14.0497C1.9832 12.9948 1.97216 12.6783 1.97216 10.0097C1.97216 7.34122 1.9832 7.02087 2.02797 5.96995C2.06882 4.99319 2.22507 4.46575 2.35529 4.11412C2.50791 3.68038 2.74978 3.28586 3.06984 2.96536C3.37856 2.63327 3.75066 2.37931 4.16374 2.21921C4.49863 2.08247 5.00474 1.9184 5.9312 1.87537C6.93586 1.82851 7.23731 1.81676 9.77858 1.81676C12.3238 1.81676 12.6252 1.82851 13.6262 1.87537C14.5564 1.9184 15.0588 2.08247 15.3936 2.21921C15.8066 2.37931 16.1825 2.63327 16.4875 2.96536C16.8038 3.28967 17.0456 3.68038 17.1983 4.11412C17.3285 4.46575 17.4848 4.99701 17.5257 5.96995C17.5704 7.02484 17.5815 7.34122 17.5815 10.0097C17.5815 12.6783 17.5704 12.9908 17.5257 14.0457Z" fill="#080829"/>
</svg>
