<svg width="22" height="22" viewBox="0 0 22 22" fill="none" xmlns="http://www.w3.org/2000/svg">
<path opacity="0.1" d="M17.3156 4.33643C18.2276 4.33643 18.6636 5.45731 17.9913 6.07358L12.3533 11.2418C11.5886 11.9427 10.415 11.9427 9.65035 11.2418L4.01227 6.07358C3.33997 5.45731 3.77598 4.33643 4.68799 4.33643H17.3156Z" fill="#080829"/>
<path d="M17.8864 4.33643H4.11719C3.01262 4.33643 2.11719 5.23185 2.11719 6.33642V15.6633C2.11719 16.7679 3.01262 17.6633 4.11719 17.6633H17.8864C18.991 17.6633 19.8864 16.7679 19.8864 15.6633V6.33643C19.8864 5.23186 18.991 4.33643 17.8864 4.33643Z" stroke="#080829" stroke-width="1.2" stroke-linecap="round" stroke-linejoin="round"/>
<path d="M19.2917 5.0769L12.3602 11.5132C11.5929 12.2258 10.4058 12.2258 9.63844 11.5132L2.70703 5.0769" stroke="#080829" stroke-width="1.2" stroke-linecap="round" stroke-linejoin="round"/>
</svg>
