<svg width="20" height="18" viewBox="0 0 20 18" fill="none" xmlns="http://www.w3.org/2000/svg">
<path d="M19.2597 2.79875C18.5513 3.125 17.7966 3.34125 17.0097 3.44625C17.8193 2.93875 18.4371 2.14125 18.7275 1.18C17.9728 1.6525 17.1394 1.98625 16.2513 2.1725C15.5347 1.37125 14.5133 0.875 13.399 0.875C11.2371 0.875 9.49659 2.7175 9.49659 4.97625C9.49659 5.30125 9.52278 5.61375 9.58706 5.91125C6.34064 5.745 3.46802 4.11125 1.53826 1.6225C1.20136 2.23625 1.00374 2.93875 1.00374 3.695C1.00374 5.115 1.70017 6.37375 2.73826 7.1025C2.11088 7.09 1.4954 6.89875 0.973975 6.5975C0.973975 6.61 0.973975 6.62625 0.973975 6.6425C0.973975 8.635 2.32755 10.29 4.10255 10.6712C3.78469 10.7625 3.43826 10.8062 3.07874 10.8062C2.82874 10.8062 2.57636 10.7913 2.33945 10.7362C2.8454 12.36 4.28112 13.5538 5.98826 13.5925C4.65969 14.6838 2.97278 15.3412 1.14659 15.3412C0.826352 15.3412 0.51921 15.3263 0.212067 15.285C1.94183 16.4563 3.99183 17.125 6.20255 17.125C13.3883 17.125 17.3169 10.875 17.3169 5.4575C17.3169 5.27625 17.3109 5.10125 17.3026 4.9275C18.0775 4.35 18.7288 3.62875 19.2597 2.79875Z" fill="#080829"/>
</svg>
