<svg width="64" height="69" viewBox="0 0 64 69" fill="none" xmlns="http://www.w3.org/2000/svg">
<path d="M8.19259 60.4772H48.5931L46.6636 54.2297L51.2791 58.1907L55.5093 61.9817L63.216 68.4219V7.43437C63.0233 3.64337 59.7593 0.421875 55.7133 0.421875L8.20679 0.430375C4.16363 0.430375 0.882629 3.65755 0.882629 7.44854V53.4619C0.882629 57.4597 4.15796 60.4772 8.19259 60.4772ZM38.0786 16.5237L37.9851 16.5577L38.0191 16.5237H38.0786ZM16.4575 20.1192C21.651 16.3396 26.4648 16.5209 26.4648 16.5209L26.853 16.9034C20.4978 18.4192 17.6163 21.2582 17.6163 21.2582C17.6163 21.2582 18.387 20.8814 19.7328 20.3062C28.2923 16.9402 37.6395 17.1839 46.2925 21.4452C46.2925 21.4452 43.4053 18.7904 37.4411 17.0904L37.9681 16.5719C38.7926 16.5747 43.156 16.7277 47.8253 20.1419C47.8253 20.1419 53.05 29.0669 53.05 40.0319C52.8771 39.8222 49.8086 44.7522 41.9121 44.9222C41.9121 44.9222 40.5748 43.4092 39.6228 42.0889C44.2411 40.7629 45.9695 38.1109 45.9695 38.1109C44.4536 39.0657 43.071 39.6324 41.949 40.1991C40.2235 40.9584 38.4951 41.3324 36.7696 41.7149C28.5983 43.0409 24.0111 40.8224 19.6761 39.0629L18.1943 38.3092C18.1943 38.3092 19.9198 40.9612 24.354 42.2872C23.1895 43.6161 22.0363 45.1262 22.0363 45.1262C14.1426 44.9392 11.264 40.0092 11.264 40.0092C11.264 29.0272 16.4575 20.1192 16.4575 20.1192Z" fill="#5865F2"/>
</svg>
