<svg width="70" height="48" viewBox="0 0 70 48" fill="none" xmlns="http://www.w3.org/2000/svg">
<path d="M51.3071 14.1608C51.3071 14.1608 45.6999 31.4294 45.2855 32.8956C45.1198 31.4566 41.0317 0.421875 41.0317 0.421875C31.4744 0.421875 26.392 7.10126 23.685 14.1608C23.685 14.1608 16.8624 31.4837 16.3099 32.9228C16.2823 31.5652 15.2603 14.3237 15.2603 14.3237C14.6802 5.6622 6.64217 0.421875 0.123352 0.421875L7.96803 47.4219C17.9673 47.3947 23.3536 40.7425 26.171 33.6559C26.171 33.6559 32.165 18.3693 32.4136 17.6905C32.4689 18.3422 36.7227 47.4219 36.7227 47.4219C46.7495 47.4219 52.1634 41.2041 55.0637 34.389L69.1234 0.421875C59.2071 0.421875 53.9865 7.07411 51.3071 14.1608Z" fill="#4353FF"/>
</svg>
