<svg width="38" height="36" viewBox="0 0 38 36" fill="none" xmlns="http://www.w3.org/2000/svg">
<path fill-rule="evenodd" clip-rule="evenodd" d="M26.058 0.584521C27.2148 0.584521 28.3698 0.747691 29.468 1.11619C36.2348 3.31619 38.6731 10.7412 36.6363 17.2312C35.4813 20.5477 33.593 23.5745 31.1198 26.0477C27.5796 29.476 23.6948 32.5194 19.513 35.141L19.0546 35.4179L18.578 35.1227C14.3815 32.5194 10.4746 29.476 6.90146 26.0294C4.44479 23.5562 2.55462 20.5477 1.38129 17.2312C-0.690379 10.7412 1.74796 3.31619 8.5881 1.07769C9.1198 0.894361 9.668 0.766021 10.218 0.694521H10.438C10.9531 0.619361 11.4646 0.584521 11.978 0.584521H12.1796C13.3346 0.619361 14.453 0.821021 15.5365 1.18952H15.6446C15.718 1.22436 15.773 1.26286 15.8096 1.29769C16.2148 1.42786 16.598 1.57452 16.9646 1.77619L17.6613 2.08786C17.8296 2.17764 18.0186 2.31483 18.1819 2.43339C18.2854 2.50851 18.3785 2.57615 18.4496 2.61952C18.4795 2.63717 18.5099 2.65492 18.5406 2.67281C18.6978 2.76458 18.8615 2.86016 18.9996 2.96602C21.0365 1.40952 23.5096 0.566191 26.058 0.584521ZM30.9346 13.7845C31.6863 13.7644 32.328 13.1612 32.383 12.3894V12.1712C32.438 9.60268 30.8815 7.27618 28.5146 6.37788C27.763 6.11938 26.938 6.52448 26.663 7.29448C26.4063 8.06448 26.8096 8.90788 27.5796 9.18098C28.7548 9.62098 29.5413 10.7779 29.5413 12.0594V12.1162C29.5065 12.536 29.633 12.9412 29.8896 13.2529C30.1463 13.5645 30.5313 13.746 30.9346 13.7845Z" fill="#080829"/>
</svg>
