<svg width="38" height="38" viewBox="0 0 38 38" fill="none" xmlns="http://www.w3.org/2000/svg">
<path fill-rule="evenodd" clip-rule="evenodd" d="M10.439 0.66748H27.5605C33.7957 0.66748 37.3157 4.20398 37.334 10.4392V27.5625C37.334 33.7959 33.7957 37.3342 27.5605 37.3342H10.439C4.20386 37.3342 0.667358 33.7959 0.667358 27.5625V10.4392C0.667358 4.20398 4.20386 0.66748 10.439 0.66748ZM19.0905 29.7442C19.8807 29.7442 20.5389 29.1575 20.6122 28.3692V9.68746C20.6855 9.11916 20.4124 8.54896 19.9174 8.23916C19.4022 7.92746 18.7789 7.92746 18.2857 8.23916C17.7889 8.54896 17.5157 9.11916 17.5689 9.68746V28.3692C17.6624 29.1575 18.3205 29.7442 19.0905 29.7442ZM27.5257 29.7442C28.2957 29.7442 28.9539 29.1575 29.0474 28.3692V22.3559C29.1005 21.7674 28.8274 21.2192 28.3305 20.9075C27.8374 20.5959 27.214 20.5959 26.7007 20.9075C26.2039 21.2192 25.9307 21.7674 26.004 22.3559V28.3692C26.0774 29.1575 26.7355 29.7442 27.5257 29.7442ZM12.0689 28.3692C11.9955 29.1575 11.3374 29.7442 10.5472 29.7442C9.7589 29.7442 9.0989 29.1575 9.0274 28.3692V15.7009C8.9724 15.1307 9.2455 14.5642 9.7424 14.2525C10.2355 13.9409 10.8607 13.9409 11.3557 14.2525C11.8489 14.5642 12.1257 15.1307 12.0689 15.7009V28.3692Z" fill="#080829"/>
</svg>
