<svg width="38" height="38" viewBox="0 0 38 38" fill="none" xmlns="http://www.w3.org/2000/svg">
<path fill-rule="evenodd" clip-rule="evenodd" d="M21.6582 5.94706H27.2865C34.0515 5.94706 37.3515 9.5587 37.3332 16.9654V25.8937C37.3332 32.9704 32.9698 37.3337 25.8748 37.3337H12.1065C5.04817 37.3337 0.666504 32.9704 0.666504 25.8754V12.1071C0.666504 4.51706 4.03984 0.667061 10.6948 0.667061H13.5915C15.2983 0.648731 16.8915 1.43706 17.9365 2.77539L19.5498 4.92039C20.0632 5.56206 20.8332 5.94706 21.6582 5.94706ZM10.5115 25.0321H27.4882C28.2398 25.0321 28.8448 24.4087 28.8448 23.6571C28.8448 22.8871 28.2398 22.2821 27.4882 22.2821H10.5115C9.7415 22.2821 9.1365 22.8871 9.1365 23.6571C9.1365 24.4087 9.7415 25.0321 10.5115 25.0321Z" fill="#080829"/>
</svg>
