<svg width="42" height="30" viewBox="0 0 42 30" fill="none" xmlns="http://www.w3.org/2000/svg">
<path fill-rule="evenodd" clip-rule="evenodd" d="M28.6235 8.09348C28.6235 12.4013 25.1893 15.8554 20.9065 15.8554C16.6236 15.8554 13.1894 12.4013 13.1894 8.09348C13.1894 3.78408 16.6236 0.333252 20.9065 0.333252C25.1893 0.333252 28.6235 3.78408 28.6235 8.09348ZM20.9065 29.6666C14.616 29.6666 9.2447 28.6693 9.2447 24.6802C9.2447 20.6895 14.5815 19.6559 20.9065 19.6559C27.197 19.6559 32.5682 20.6532 32.5682 24.6439C32.5682 28.633 27.2314 29.6666 20.9065 29.6666ZM31.9213 8.23348C31.9213 10.4295 31.2663 12.4752 30.1172 14.1759C29.999 14.3509 30.104 14.587 30.3125 14.6233C30.5998 14.6729 30.8969 14.7009 31.199 14.7092C34.2112 14.7884 36.9149 12.8385 37.6618 9.90278C38.7682 5.54218 35.5196 1.6274 31.3828 1.6274C30.933 1.6274 30.5029 1.67528 30.0843 1.76114C30.0269 1.77434 29.9661 1.80076 29.9333 1.85195C29.8939 1.91469 29.9235 1.9989 29.9629 2.05338C31.2055 3.80518 31.9213 5.94178 31.9213 8.23348ZM36.91 17.773C38.934 18.1709 40.2654 18.9832 40.8169 20.1638C41.2831 21.133 41.2831 22.2574 40.8169 23.225C39.9732 25.056 37.2531 25.6438 36.1959 25.7957C35.9776 25.8288 35.8019 25.6389 35.8249 25.4193C36.365 20.3454 32.069 17.9397 30.9577 17.3866C30.91 17.3619 30.9002 17.3239 30.9051 17.3008C30.9084 17.2843 30.9281 17.2578 30.9642 17.2529C33.3691 17.2083 35.9546 17.5385 36.91 17.773ZM10.8013 14.709C11.1033 14.7008 11.3988 14.6743 11.6877 14.6232C11.8962 14.5868 12.0013 14.3507 11.8831 14.1757C10.734 12.4751 10.079 10.4293 10.079 8.23338C10.079 5.94158 10.7947 3.80508 12.0374 2.05322C12.0768 1.99873 12.1047 1.91452 12.0669 1.85178C12.0341 1.80225 11.9717 1.77418 11.9159 1.76097C11.4957 1.67511 11.0656 1.62723 10.6158 1.62723C6.47903 1.62723 3.23036 5.54198 4.33842 9.90258C5.08533 12.8383 7.789 14.7883 10.8013 14.709ZM11.0943 17.2998C11.0992 17.3245 11.0894 17.3609 11.0434 17.3873C9.9304 17.9404 5.63444 20.3461 6.17452 25.4183C6.1975 25.6395 6.02349 25.8278 5.80516 25.7964C4.74799 25.6445 2.02791 25.0567 1.18414 23.2256C0.716289 22.2564 0.716289 21.1337 1.18414 20.1645C1.73571 18.9839 3.06538 18.1716 5.08944 17.772C6.04647 17.5392 8.63031 17.209 11.0369 17.2535C11.073 17.2585 11.091 17.2849 11.0943 17.2998Z" fill="#080829"/>
</svg>
