<svg width="32" height="38" viewBox="0 0 32 38" fill="none" xmlns="http://www.w3.org/2000/svg">
<path fill-rule="evenodd" clip-rule="evenodd" d="M28.2963 13.1267C28.2963 15.4292 28.9048 16.7864 30.2441 18.3503C31.259 19.5025 31.5833 20.9815 31.5833 22.5861C31.5833 24.1888 31.0567 25.7103 30.0017 26.9456C28.6206 28.4265 26.6728 29.3719 24.6849 29.5362C21.8042 29.7818 18.9217 29.9886 16.0009 29.9886C13.0783 29.9886 10.1975 29.8649 7.3168 29.5362C5.3271 29.3719 3.37933 28.4265 2.00001 26.9456C0.945026 25.7103 0.416626 24.1888 0.416626 22.5861C0.416626 20.9815 0.742776 19.5025 1.75585 18.3503C3.13699 16.7864 3.70548 15.4292 3.70548 13.1267V12.3456C3.70548 9.26202 4.4744 7.24572 6.0578 5.27183C8.4119 2.39319 12.1854 0.666748 15.9189 0.666748H16.0829C19.8965 0.666748 23.7921 2.47628 26.1061 5.47863C27.6075 7.41192 28.2963 9.34332 28.2963 12.3456V13.1267ZM10.635 33.7783C10.635 32.855 11.4823 32.4322 12.2658 32.2512C13.1823 32.0574 18.767 32.0574 19.6835 32.2512C20.467 32.4322 21.3142 32.855 21.3142 33.7783C21.2687 34.6572 20.753 35.4364 20.0406 35.9312C19.1168 36.6514 18.0327 37.1074 16.8993 37.2718C16.2725 37.353 15.6567 37.3549 15.0518 37.2718C13.9166 37.1074 12.8325 36.6514 11.9105 35.9294C11.1962 35.4364 10.6806 34.6572 10.635 33.7783Z" fill="#080829"/>
</svg>
