<svg width="38" height="38" viewBox="0 0 38 38" fill="none" xmlns="http://www.w3.org/2000/svg">
<path d="M36.2983 1.73372C35.3812 0.792507 34.024 0.441867 32.7585 0.810967L3.24808 9.39256C1.91286 9.76346 0.966467 10.8284 0.711537 12.1811C0.451097 13.5579 1.3608 15.3056 2.54929 16.0364L11.7766 21.7076C12.723 22.2889 13.9445 22.1431 14.7276 21.3533L25.2938 10.7213C25.8257 10.1677 26.706 10.1677 27.2379 10.7213C27.7698 11.2565 27.7698 12.1239 27.2379 12.6776L16.6534 23.3113C15.8684 24.0994 15.7217 25.3266 16.2994 26.2789L21.9374 35.5987C22.5977 36.706 23.7348 37.3335 24.982 37.3335C25.1287 37.3335 25.2938 37.3335 25.4405 37.315C26.8711 37.1304 28.0082 36.1523 28.4301 34.7682L37.1786 5.29553C37.5638 4.04059 37.2153 2.67492 36.2983 1.73372Z" fill="#080829"/>
</svg>
