<svg width="38" height="38" viewBox="0 0 38 38" fill="none" xmlns="http://www.w3.org/2000/svg">
<path fill-rule="evenodd" clip-rule="evenodd" d="M28.4963 5.08508C28.4963 2.64675 30.4763 0.666748 32.9147 0.666748C35.353 0.666748 37.333 2.64675 37.333 5.08508C37.333 7.52346 35.353 9.50346 32.9147 9.50346C30.4763 9.50346 28.4963 7.52346 28.4963 5.08508ZM21.4378 24.0588L26.7361 17.2223L26.6628 17.259C26.9561 16.8557 27.0111 16.3423 26.8095 15.884C26.6096 15.4257 26.1678 15.114 25.693 15.0773C25.1961 15.0223 24.703 15.2423 24.4078 15.6457L19.973 21.384L14.8928 17.3873C14.5811 17.149 14.2145 17.0555 13.8478 17.094C13.483 17.149 13.153 17.3488 12.9311 17.6422L7.5063 24.7023L7.3945 24.8673C7.0828 25.4522 7.2295 26.2038 7.7795 26.609C8.0361 26.774 8.3111 26.884 8.6228 26.884C9.0463 26.9023 9.4478 26.6805 9.7045 26.334L14.3061 20.4105L19.5311 24.3357L19.6961 24.4438C20.2828 24.7555 21.0161 24.6107 21.4378 24.0588ZM25.3245 3.93063C25.2511 4.38896 25.2145 4.8473 25.2145 5.30563C25.2145 9.43066 28.5511 12.7655 32.6578 12.7655C33.1161 12.7655 33.5561 12.7123 34.0145 12.639V27.4322C34.0145 33.649 30.3478 37.334 24.1145 37.334H10.568C4.3328 37.334 0.666138 33.649 0.666138 27.4322V13.8673C0.666138 7.63396 4.3328 3.93063 10.568 3.93063H25.3245Z" fill="#080829"/>
</svg>
