<svg width="38" height="34" viewBox="0 0 38 34" fill="none" xmlns="http://www.w3.org/2000/svg">
<path fill-rule="evenodd" clip-rule="evenodd" d="M29.5763 10.3666H37.3333C37.3333 4.13842 33.6014 0.5 27.2785 0.5H10.7214C4.39848 0.5 0.666626 4.13842 0.666626 10.2872V23.7128C0.666626 29.8616 4.39848 33.5 10.7214 33.5H27.2785C33.6014 33.5 37.3333 29.8616 37.3333 23.7128V23.1408H29.5763C25.9762 23.1408 23.0577 20.2955 23.0577 16.7855C23.0577 13.2756 25.9762 10.4302 29.5763 10.4302V10.3666ZM29.5763 13.0994H35.9644C36.7204 13.0994 37.3333 13.697 37.3333 14.434V19.0734C37.3245 19.8069 36.7167 20.3995 35.9644 20.408H29.7229C27.9004 20.4319 26.3067 19.2153 25.8933 17.4846C25.6863 16.4102 25.9769 15.3015 26.6873 14.4557C27.3976 13.6099 28.4551 13.1135 29.5763 13.0994ZM29.8533 17.9771H30.4563C31.2303 17.9771 31.8577 17.3654 31.8577 16.6107C31.8577 15.8561 31.2303 15.2443 30.4563 15.2443H29.8533C29.4831 15.2401 29.1266 15.3805 28.8633 15.6342C28.6 15.888 28.4518 16.2339 28.4518 16.5948C28.4518 17.3521 29.0766 17.9684 29.8533 17.9771ZM9.3526 10.3666H19.7007C20.4747 10.3666 21.1022 9.7549 21.1022 9.0002C21.1022 8.2456 20.4747 7.6338 19.7007 7.6338H9.3526C8.5849 7.6338 7.96 8.2359 7.9511 8.9844C7.951 9.7416 8.5759 10.3579 9.3526 10.3666Z" fill="#080829"/>
</svg>
